M48
; DRILL file {KiCad 9.0.0} date 2026-01-04T18:32:58+0100
; FORMAT={-:-/ absolute / metric / decimal}
; #@! TF.CreationDate,2026-01-04T18:32:59+01:00
; #@! TF.GenerationSoftware,Kicad,Pcbnew,9.0.0
; #@! TF.FileFunction,MixedPlating,1,4
FMAT,2
METRIC
; #@! TA.AperFunction,Plated,PTH,ComponentDrill
T1C0.300
; #@! TA.AperFunction,Plated,PTH,ComponentDrill
T2C2.200
%
G90
G05
T1
X119.672Y-79.581
X119.672Y-120.876
X125.612Y-85.521
X125.612Y-114.937
X135.119Y-95.028
X135.119Y-105.43
X145.521Y-95.028
X145.521Y-105.43
X155.028Y-85.521
X155.028Y-114.937
X160.967Y-79.581
X160.967Y-120.876
T2
X112.392Y-100.153
X132.892Y-100.153
X140.244Y-107.657
X140.244Y-128.157
X140.396Y-72.301
X140.396Y-92.801
X147.748Y-100.305
X168.248Y-100.305
M30
