ISO-10303-21;
HEADER;
/* Generated by software containing ST-Developer
 * from STEP Tools, Inc. (www.steptools.com) 
 */

FILE_DESCRIPTION(
/* description */ (''),
/* implementation_level */ '2;1');

FILE_NAME(
/* name */ 'LSM115J.step',
/* time_stamp */ '2025-11-26T20:55:00+01:00',
/* author */ (''),
/* organization */ (''),
/* preprocessor_version */ 'ST-DEVELOPER v20.1',
/* originating_system */ 'Autodesk Translation Framework v14.21.0.0',
/* authorisation */ '');

FILE_SCHEMA (('AUTOMOTIVE_DESIGN { 1 0 10303 214 3 1 1 }'));
ENDSEC;

DATA;
#10=MECHANICAL_DESIGN_GEOMETRIC_PRESENTATION_REPRESENTATION('',(#37,#38,
#39),#1221);
#11=SHAPE_REPRESENTATION_RELATIONSHIP('SRR','None',#1228,#12);
#12=ADVANCED_BREP_SHAPE_REPRESENTATION('',(#40,#41,#42),#1220);
#13=CYLINDRICAL_SURFACE('',#771,0.1);
#14=CYLINDRICAL_SURFACE('',#774,0.1);
#15=CYLINDRICAL_SURFACE('',#778,0.189301148015501);
#16=CYLINDRICAL_SURFACE('',#781,0.189300833169033);
#17=CYLINDRICAL_SURFACE('',#793,0.1);
#18=CYLINDRICAL_SURFACE('',#796,0.1);
#19=CYLINDRICAL_SURFACE('',#800,0.189301148015501);
#20=CYLINDRICAL_SURFACE('',#803,0.189300833169033);
#21=CIRCLE('',#767,0.1);
#22=CIRCLE('',#768,0.1);
#23=CIRCLE('',#769,0.189301148015501);
#24=CIRCLE('',#770,0.189300833169033);
#25=CIRCLE('',#772,0.1);
#26=CIRCLE('',#775,0.1);
#27=CIRCLE('',#779,0.189301148015501);
#28=CIRCLE('',#782,0.189300833169033);
#29=CIRCLE('',#789,0.189300833169033);
#30=CIRCLE('',#790,0.189301148015501);
#31=CIRCLE('',#791,0.1);
#32=CIRCLE('',#792,0.1);
#33=CIRCLE('',#794,0.1);
#34=CIRCLE('',#797,0.1);
#35=CIRCLE('',#801,0.189301148015501);
#36=CIRCLE('',#804,0.189300833169033);
#37=STYLED_ITEM('',(#1238),#40);
#38=STYLED_ITEM('',(#1239),#41);
#39=STYLED_ITEM('',(#1239),#42);
#40=MANIFOLD_SOLID_BREP('Body1',#735);
#41=MANIFOLD_SOLID_BREP('Body2',#736);
#42=MANIFOLD_SOLID_BREP('Body4',#737);
#43=FACE_OUTER_BOUND('',#85,.T.);
#44=FACE_OUTER_BOUND('',#86,.T.);
#45=FACE_OUTER_BOUND('',#87,.T.);
#46=FACE_OUTER_BOUND('',#88,.T.);
#47=FACE_OUTER_BOUND('',#89,.T.);
#48=FACE_OUTER_BOUND('',#90,.T.);
#49=FACE_OUTER_BOUND('',#91,.T.);
#50=FACE_OUTER_BOUND('',#92,.T.);
#51=FACE_OUTER_BOUND('',#93,.T.);
#52=FACE_OUTER_BOUND('',#94,.T.);
#53=FACE_OUTER_BOUND('',#95,.T.);
#54=FACE_OUTER_BOUND('',#96,.T.);
#55=FACE_OUTER_BOUND('',#97,.T.);
#56=FACE_OUTER_BOUND('',#98,.T.);
#57=FACE_OUTER_BOUND('',#99,.T.);
#58=FACE_OUTER_BOUND('',#100,.T.);
#59=FACE_OUTER_BOUND('',#101,.T.);
#60=FACE_OUTER_BOUND('',#102,.T.);
#61=FACE_OUTER_BOUND('',#103,.T.);
#62=FACE_OUTER_BOUND('',#104,.T.);
#63=FACE_OUTER_BOUND('',#105,.T.);
#64=FACE_OUTER_BOUND('',#106,.T.);
#65=FACE_OUTER_BOUND('',#107,.T.);
#66=FACE_OUTER_BOUND('',#108,.T.);
#67=FACE_OUTER_BOUND('',#109,.T.);
#68=FACE_OUTER_BOUND('',#110,.T.);
#69=FACE_OUTER_BOUND('',#111,.T.);
#70=FACE_OUTER_BOUND('',#112,.T.);
#71=FACE_OUTER_BOUND('',#113,.T.);
#72=FACE_OUTER_BOUND('',#114,.T.);
#73=FACE_OUTER_BOUND('',#115,.T.);
#74=FACE_OUTER_BOUND('',#116,.T.);
#75=FACE_OUTER_BOUND('',#117,.T.);
#76=FACE_OUTER_BOUND('',#118,.T.);
#77=FACE_OUTER_BOUND('',#119,.T.);
#78=FACE_OUTER_BOUND('',#120,.T.);
#79=FACE_OUTER_BOUND('',#121,.T.);
#80=FACE_OUTER_BOUND('',#122,.T.);
#81=FACE_OUTER_BOUND('',#123,.T.);
#82=FACE_OUTER_BOUND('',#124,.T.);
#83=FACE_OUTER_BOUND('',#125,.T.);
#84=FACE_OUTER_BOUND('',#126,.T.);
#85=EDGE_LOOP('',(#459,#460,#461,#462));
#86=EDGE_LOOP('',(#463,#464,#465,#466));
#87=EDGE_LOOP('',(#467,#468,#469,#470));
#88=EDGE_LOOP('',(#471,#472,#473,#474));
#89=EDGE_LOOP('',(#475,#476,#477,#478));
#90=EDGE_LOOP('',(#479,#480,#481,#482));
#91=EDGE_LOOP('',(#483,#484,#485,#486));
#92=EDGE_LOOP('',(#487,#488,#489,#490));
#93=EDGE_LOOP('',(#491,#492,#493,#494));
#94=EDGE_LOOP('',(#495,#496,#497,#498));
#95=EDGE_LOOP('',(#499,#500,#501,#502));
#96=EDGE_LOOP('',(#503,#504,#505,#506));
#97=EDGE_LOOP('',(#507,#508,#509,#510));
#98=EDGE_LOOP('',(#511,#512,#513,#514));
#99=EDGE_LOOP('',(#515,#516,#517,#518));
#100=EDGE_LOOP('',(#519,#520,#521,#522,#523,#524,#525,#526,#527,#528,#529,
#530));
#101=EDGE_LOOP('',(#531,#532,#533,#534));
#102=EDGE_LOOP('',(#535,#536,#537,#538));
#103=EDGE_LOOP('',(#539,#540,#541,#542));
#104=EDGE_LOOP('',(#543,#544,#545,#546));
#105=EDGE_LOOP('',(#547,#548,#549,#550));
#106=EDGE_LOOP('',(#551,#552,#553,#554));
#107=EDGE_LOOP('',(#555,#556,#557,#558));
#108=EDGE_LOOP('',(#559,#560,#561,#562));
#109=EDGE_LOOP('',(#563,#564,#565,#566));
#110=EDGE_LOOP('',(#567,#568,#569,#570));
#111=EDGE_LOOP('',(#571,#572,#573,#574));
#112=EDGE_LOOP('',(#575,#576,#577,#578,#579,#580,#581,#582,#583,#584,#585,
#586));
#113=EDGE_LOOP('',(#587,#588,#589,#590));
#114=EDGE_LOOP('',(#591,#592,#593,#594,#595,#596,#597,#598,#599,#600,#601,
#602));
#115=EDGE_LOOP('',(#603,#604,#605,#606));
#116=EDGE_LOOP('',(#607,#608,#609,#610));
#117=EDGE_LOOP('',(#611,#612,#613,#614));
#118=EDGE_LOOP('',(#615,#616,#617,#618));
#119=EDGE_LOOP('',(#619,#620,#621,#622));
#120=EDGE_LOOP('',(#623,#624,#625,#626));
#121=EDGE_LOOP('',(#627,#628,#629,#630));
#122=EDGE_LOOP('',(#631,#632,#633,#634));
#123=EDGE_LOOP('',(#635,#636,#637,#638));
#124=EDGE_LOOP('',(#639,#640,#641,#642));
#125=EDGE_LOOP('',(#643,#644,#645,#646));
#126=EDGE_LOOP('',(#647,#648,#649,#650,#651,#652,#653,#654,#655,#656,#657,
#658));
#127=LINE('',#1015,#211);
#128=LINE('',#1017,#212);
#129=LINE('',#1019,#213);
#130=LINE('',#1020,#214);
#131=LINE('',#1024,#215);
#132=LINE('',#1026,#216);
#133=LINE('',#1028,#217);
#134=LINE('',#1029,#218);
#135=LINE('',#1031,#219);
#136=LINE('',#1032,#220);
#137=LINE('',#1034,#221);
#138=LINE('',#1035,#222);
#139=LINE('',#1038,#223);
#140=LINE('',#1040,#224);
#141=LINE('',#1041,#225);
#142=LINE('',#1044,#226);
#143=LINE('',#1045,#227);
#144=LINE('',#1050,#228);
#145=LINE('',#1051,#229);
#146=LINE('',#1052,#230);
#147=LINE('',#1056,#231);
#148=LINE('',#1058,#232);
#149=LINE('',#1059,#233);
#150=LINE('',#1060,#234);
#151=LINE('',#1062,#235);
#152=LINE('',#1063,#236);
#153=LINE('',#1065,#237);
#154=LINE('',#1067,#238);
#155=LINE('',#1073,#239);
#156=LINE('',#1075,#240);
#157=LINE('',#1077,#241);
#158=LINE('',#1078,#242);
#159=LINE('',#1082,#243);
#160=LINE('',#1086,#244);
#161=LINE('',#1089,#245);
#162=LINE('',#1091,#246);
#163=LINE('',#1095,#247);
#164=LINE('',#1099,#248);
#165=LINE('',#1100,#249);
#166=LINE('',#1103,#250);
#167=LINE('',#1106,#251);
#168=LINE('',#1109,#252);
#169=LINE('',#1110,#253);
#170=LINE('',#1114,#254);
#171=LINE('',#1116,#255);
#172=LINE('',#1119,#256);
#173=LINE('',#1120,#257);
#174=LINE('',#1124,#258);
#175=LINE('',#1127,#259);
#176=LINE('',#1128,#260);
#177=LINE('',#1132,#261);
#178=LINE('',#1135,#262);
#179=LINE('',#1136,#263);
#180=LINE('',#1139,#264);
#181=LINE('',#1140,#265);
#182=LINE('',#1142,#266);
#183=LINE('',#1147,#267);
#184=LINE('',#1149,#268);
#185=LINE('',#1151,#269);
#186=LINE('',#1152,#270);
#187=LINE('',#1156,#271);
#188=LINE('',#1158,#272);
#189=LINE('',#1160,#273);
#190=LINE('',#1164,#274);
#191=LINE('',#1167,#275);
#192=LINE('',#1169,#276);
#193=LINE('',#1173,#277);
#194=LINE('',#1177,#278);
#195=LINE('',#1179,#279);
#196=LINE('',#1183,#280);
#197=LINE('',#1184,#281);
#198=LINE('',#1187,#282);
#199=LINE('',#1190,#283);
#200=LINE('',#1193,#284);
#201=LINE('',#1194,#285);
#202=LINE('',#1197,#286);
#203=LINE('',#1201,#287);
#204=LINE('',#1202,#288);
#205=LINE('',#1205,#289);
#206=LINE('',#1209,#290);
#207=LINE('',#1210,#291);
#208=LINE('',#1213,#292);
#209=LINE('',#1214,#293);
#210=LINE('',#1216,#294);
#211=VECTOR('',#813,10.);
#212=VECTOR('',#814,10.);
#213=VECTOR('',#815,10.);
#214=VECTOR('',#816,10.);
#215=VECTOR('',#819,10.);
#216=VECTOR('',#820,10.);
#217=VECTOR('',#821,10.);
#218=VECTOR('',#822,10.);
#219=VECTOR('',#825,10.);
#220=VECTOR('',#826,10.);
#221=VECTOR('',#829,10.);
#222=VECTOR('',#830,10.);
#223=VECTOR('',#833,10.);
#224=VECTOR('',#834,10.);
#225=VECTOR('',#835,10.);
#226=VECTOR('',#838,10.);
#227=VECTOR('',#839,10.);
#228=VECTOR('',#844,10.);
#229=VECTOR('',#845,10.);
#230=VECTOR('',#846,10.);
#231=VECTOR('',#849,10.);
#232=VECTOR('',#850,10.);
#233=VECTOR('',#851,10.);
#234=VECTOR('',#852,10.);
#235=VECTOR('',#855,10.);
#236=VECTOR('',#856,10.);
#237=VECTOR('',#859,10.);
#238=VECTOR('',#862,10.);
#239=VECTOR('',#869,10.);
#240=VECTOR('',#870,10.);
#241=VECTOR('',#871,10.);
#242=VECTOR('',#872,10.);
#243=VECTOR('',#875,10.);
#244=VECTOR('',#878,10.);
#245=VECTOR('',#881,10.);
#246=VECTOR('',#882,10.);
#247=VECTOR('',#885,10.);
#248=VECTOR('',#888,10.);
#249=VECTOR('',#889,10.);
#250=VECTOR('',#892,10.);
#251=VECTOR('',#895,10.);
#252=VECTOR('',#898,10.);
#253=VECTOR('',#899,10.);
#254=VECTOR('',#904,10.);
#255=VECTOR('',#907,10.);
#256=VECTOR('',#910,10.);
#257=VECTOR('',#911,10.);
#258=VECTOR('',#916,10.);
#259=VECTOR('',#919,10.);
#260=VECTOR('',#920,10.);
#261=VECTOR('',#925,10.);
#262=VECTOR('',#928,10.);
#263=VECTOR('',#929,10.);
#264=VECTOR('',#932,10.);
#265=VECTOR('',#933,10.);
#266=VECTOR('',#936,10.);
#267=VECTOR('',#941,10.);
#268=VECTOR('',#942,10.);
#269=VECTOR('',#943,10.);
#270=VECTOR('',#944,10.);
#271=VECTOR('',#947,10.);
#272=VECTOR('',#948,10.);
#273=VECTOR('',#949,10.);
#274=VECTOR('',#952,10.);
#275=VECTOR('',#955,10.);
#276=VECTOR('',#956,10.);
#277=VECTOR('',#959,10.);
#278=VECTOR('',#964,10.);
#279=VECTOR('',#965,10.);
#280=VECTOR('',#970,10.);
#281=VECTOR('',#971,10.);
#282=VECTOR('',#974,10.);
#283=VECTOR('',#979,10.);
#284=VECTOR('',#982,10.);
#285=VECTOR('',#983,10.);
#286=VECTOR('',#986,10.);
#287=VECTOR('',#991,10.);
#288=VECTOR('',#992,10.);
#289=VECTOR('',#995,10.);
#290=VECTOR('',#1000,10.);
#291=VECTOR('',#1001,10.);
#292=VECTOR('',#1004,10.);
#293=VECTOR('',#1005,10.);
#294=VECTOR('',#1008,10.);
#295=VERTEX_POINT('',#1013);
#296=VERTEX_POINT('',#1014);
#297=VERTEX_POINT('',#1016);
#298=VERTEX_POINT('',#1018);
#299=VERTEX_POINT('',#1022);
#300=VERTEX_POINT('',#1023);
#301=VERTEX_POINT('',#1025);
#302=VERTEX_POINT('',#1027);
#303=VERTEX_POINT('',#1037);
#304=VERTEX_POINT('',#1039);
#305=VERTEX_POINT('',#1043);
#306=VERTEX_POINT('',#1048);
#307=VERTEX_POINT('',#1049);
#308=VERTEX_POINT('',#1054);
#309=VERTEX_POINT('',#1055);
#310=VERTEX_POINT('',#1057);
#311=VERTEX_POINT('',#1071);
#312=VERTEX_POINT('',#1072);
#313=VERTEX_POINT('',#1074);
#314=VERTEX_POINT('',#1076);
#315=VERTEX_POINT('',#1080);
#316=VERTEX_POINT('',#1081);
#317=VERTEX_POINT('',#1083);
#318=VERTEX_POINT('',#1085);
#319=VERTEX_POINT('',#1087);
#320=VERTEX_POINT('',#1090);
#321=VERTEX_POINT('',#1092);
#322=VERTEX_POINT('',#1094);
#323=VERTEX_POINT('',#1096);
#324=VERTEX_POINT('',#1098);
#325=VERTEX_POINT('',#1102);
#326=VERTEX_POINT('',#1104);
#327=VERTEX_POINT('',#1108);
#328=VERTEX_POINT('',#1112);
#329=VERTEX_POINT('',#1118);
#330=VERTEX_POINT('',#1122);
#331=VERTEX_POINT('',#1126);
#332=VERTEX_POINT('',#1130);
#333=VERTEX_POINT('',#1134);
#334=VERTEX_POINT('',#1138);
#335=VERTEX_POINT('',#1145);
#336=VERTEX_POINT('',#1146);
#337=VERTEX_POINT('',#1148);
#338=VERTEX_POINT('',#1150);
#339=VERTEX_POINT('',#1154);
#340=VERTEX_POINT('',#1155);
#341=VERTEX_POINT('',#1157);
#342=VERTEX_POINT('',#1159);
#343=VERTEX_POINT('',#1161);
#344=VERTEX_POINT('',#1163);
#345=VERTEX_POINT('',#1165);
#346=VERTEX_POINT('',#1168);
#347=VERTEX_POINT('',#1170);
#348=VERTEX_POINT('',#1172);
#349=VERTEX_POINT('',#1176);
#350=VERTEX_POINT('',#1178);
#351=VERTEX_POINT('',#1182);
#352=VERTEX_POINT('',#1186);
#353=VERTEX_POINT('',#1192);
#354=VERTEX_POINT('',#1196);
#355=VERTEX_POINT('',#1200);
#356=VERTEX_POINT('',#1204);
#357=VERTEX_POINT('',#1208);
#358=VERTEX_POINT('',#1212);
#359=EDGE_CURVE('',#295,#296,#127,.T.);
#360=EDGE_CURVE('',#296,#297,#128,.T.);
#361=EDGE_CURVE('',#297,#298,#129,.T.);
#362=EDGE_CURVE('',#298,#295,#130,.T.);
#363=EDGE_CURVE('',#299,#300,#131,.T.);
#364=EDGE_CURVE('',#300,#301,#132,.T.);
#365=EDGE_CURVE('',#301,#302,#133,.T.);
#366=EDGE_CURVE('',#302,#299,#134,.T.);
#367=EDGE_CURVE('',#296,#301,#135,.T.);
#368=EDGE_CURVE('',#300,#297,#136,.T.);
#369=EDGE_CURVE('',#298,#299,#137,.T.);
#370=EDGE_CURVE('',#302,#295,#138,.T.);
#371=EDGE_CURVE('',#302,#303,#139,.T.);
#372=EDGE_CURVE('',#304,#303,#140,.T.);
#373=EDGE_CURVE('',#304,#295,#141,.T.);
#374=EDGE_CURVE('',#305,#301,#142,.T.);
#375=EDGE_CURVE('',#303,#305,#143,.T.);
#376=EDGE_CURVE('',#306,#307,#144,.T.);
#377=EDGE_CURVE('',#307,#303,#145,.T.);
#378=EDGE_CURVE('',#305,#306,#146,.T.);
#379=EDGE_CURVE('',#308,#309,#147,.T.);
#380=EDGE_CURVE('',#309,#310,#148,.T.);
#381=EDGE_CURVE('',#310,#304,#149,.T.);
#382=EDGE_CURVE('',#304,#308,#150,.T.);
#383=EDGE_CURVE('',#305,#310,#151,.T.);
#384=EDGE_CURVE('',#309,#306,#152,.T.);
#385=EDGE_CURVE('',#307,#308,#153,.T.);
#386=EDGE_CURVE('',#296,#310,#154,.T.);
#387=EDGE_CURVE('',#311,#312,#155,.T.);
#388=EDGE_CURVE('',#313,#312,#156,.T.);
#389=EDGE_CURVE('',#314,#313,#157,.T.);
#390=EDGE_CURVE('',#314,#311,#158,.T.);
#391=EDGE_CURVE('',#315,#316,#159,.T.);
#392=EDGE_CURVE('',#316,#317,#21,.T.);
#393=EDGE_CURVE('',#317,#318,#160,.T.);
#394=EDGE_CURVE('',#318,#319,#22,.T.);
#395=EDGE_CURVE('',#319,#312,#161,.T.);
#396=EDGE_CURVE('',#320,#311,#162,.T.);
#397=EDGE_CURVE('',#320,#321,#23,.T.);
#398=EDGE_CURVE('',#321,#322,#163,.T.);
#399=EDGE_CURVE('',#322,#323,#24,.T.);
#400=EDGE_CURVE('',#323,#324,#164,.T.);
#401=EDGE_CURVE('',#324,#315,#165,.T.);
#402=EDGE_CURVE('',#325,#316,#166,.T.);
#403=EDGE_CURVE('',#326,#325,#25,.T.);
#404=EDGE_CURVE('',#317,#326,#167,.T.);
#405=EDGE_CURVE('',#327,#326,#168,.T.);
#406=EDGE_CURVE('',#318,#327,#169,.T.);
#407=EDGE_CURVE('',#328,#327,#26,.T.);
#408=EDGE_CURVE('',#319,#328,#170,.T.);
#409=EDGE_CURVE('',#313,#328,#171,.T.);
#410=EDGE_CURVE('',#329,#314,#172,.T.);
#411=EDGE_CURVE('',#320,#329,#173,.T.);
#412=EDGE_CURVE('',#330,#329,#27,.T.);
#413=EDGE_CURVE('',#321,#330,#174,.T.);
#414=EDGE_CURVE('',#331,#330,#175,.T.);
#415=EDGE_CURVE('',#322,#331,#176,.T.);
#416=EDGE_CURVE('',#332,#331,#28,.T.);
#417=EDGE_CURVE('',#323,#332,#177,.T.);
#418=EDGE_CURVE('',#333,#332,#178,.T.);
#419=EDGE_CURVE('',#324,#333,#179,.T.);
#420=EDGE_CURVE('',#334,#333,#180,.T.);
#421=EDGE_CURVE('',#315,#334,#181,.T.);
#422=EDGE_CURVE('',#325,#334,#182,.T.);
#423=EDGE_CURVE('',#335,#336,#183,.T.);
#424=EDGE_CURVE('',#337,#335,#184,.T.);
#425=EDGE_CURVE('',#337,#338,#185,.T.);
#426=EDGE_CURVE('',#338,#336,#186,.T.);
#427=EDGE_CURVE('',#339,#340,#187,.T.);
#428=EDGE_CURVE('',#341,#339,#188,.T.);
#429=EDGE_CURVE('',#342,#341,#189,.T.);
#430=EDGE_CURVE('',#343,#342,#29,.T.);
#431=EDGE_CURVE('',#344,#343,#190,.T.);
#432=EDGE_CURVE('',#345,#344,#30,.T.);
#433=EDGE_CURVE('',#345,#335,#191,.T.);
#434=EDGE_CURVE('',#346,#336,#192,.T.);
#435=EDGE_CURVE('',#347,#346,#31,.T.);
#436=EDGE_CURVE('',#348,#347,#193,.T.);
#437=EDGE_CURVE('',#340,#348,#32,.T.);
#438=EDGE_CURVE('',#349,#340,#194,.T.);
#439=EDGE_CURVE('',#348,#350,#195,.T.);
#440=EDGE_CURVE('',#350,#349,#33,.T.);
#441=EDGE_CURVE('',#347,#351,#196,.T.);
#442=EDGE_CURVE('',#351,#350,#197,.T.);
#443=EDGE_CURVE('',#346,#352,#198,.T.);
#444=EDGE_CURVE('',#352,#351,#34,.T.);
#445=EDGE_CURVE('',#338,#352,#199,.T.);
#446=EDGE_CURVE('',#353,#337,#200,.T.);
#447=EDGE_CURVE('',#345,#353,#201,.T.);
#448=EDGE_CURVE('',#344,#354,#202,.T.);
#449=EDGE_CURVE('',#354,#353,#35,.T.);
#450=EDGE_CURVE('',#343,#355,#203,.T.);
#451=EDGE_CURVE('',#355,#354,#204,.T.);
#452=EDGE_CURVE('',#342,#356,#205,.T.);
#453=EDGE_CURVE('',#356,#355,#36,.T.);
#454=EDGE_CURVE('',#341,#357,#206,.T.);
#455=EDGE_CURVE('',#357,#356,#207,.T.);
#456=EDGE_CURVE('',#339,#358,#208,.T.);
#457=EDGE_CURVE('',#358,#357,#209,.T.);
#458=EDGE_CURVE('',#349,#358,#210,.T.);
#459=ORIENTED_EDGE('',*,*,#359,.T.);
#460=ORIENTED_EDGE('',*,*,#360,.T.);
#461=ORIENTED_EDGE('',*,*,#361,.T.);
#462=ORIENTED_EDGE('',*,*,#362,.T.);
#463=ORIENTED_EDGE('',*,*,#363,.T.);
#464=ORIENTED_EDGE('',*,*,#364,.T.);
#465=ORIENTED_EDGE('',*,*,#365,.T.);
#466=ORIENTED_EDGE('',*,*,#366,.T.);
#467=ORIENTED_EDGE('',*,*,#367,.T.);
#468=ORIENTED_EDGE('',*,*,#364,.F.);
#469=ORIENTED_EDGE('',*,*,#368,.T.);
#470=ORIENTED_EDGE('',*,*,#360,.F.);
#471=ORIENTED_EDGE('',*,*,#369,.T.);
#472=ORIENTED_EDGE('',*,*,#366,.F.);
#473=ORIENTED_EDGE('',*,*,#370,.T.);
#474=ORIENTED_EDGE('',*,*,#362,.F.);
#475=ORIENTED_EDGE('',*,*,#370,.F.);
#476=ORIENTED_EDGE('',*,*,#371,.T.);
#477=ORIENTED_EDGE('',*,*,#372,.F.);
#478=ORIENTED_EDGE('',*,*,#373,.T.);
#479=ORIENTED_EDGE('',*,*,#365,.F.);
#480=ORIENTED_EDGE('',*,*,#374,.F.);
#481=ORIENTED_EDGE('',*,*,#375,.F.);
#482=ORIENTED_EDGE('',*,*,#371,.F.);
#483=ORIENTED_EDGE('',*,*,#363,.F.);
#484=ORIENTED_EDGE('',*,*,#369,.F.);
#485=ORIENTED_EDGE('',*,*,#361,.F.);
#486=ORIENTED_EDGE('',*,*,#368,.F.);
#487=ORIENTED_EDGE('',*,*,#376,.T.);
#488=ORIENTED_EDGE('',*,*,#377,.T.);
#489=ORIENTED_EDGE('',*,*,#375,.T.);
#490=ORIENTED_EDGE('',*,*,#378,.T.);
#491=ORIENTED_EDGE('',*,*,#379,.T.);
#492=ORIENTED_EDGE('',*,*,#380,.T.);
#493=ORIENTED_EDGE('',*,*,#381,.T.);
#494=ORIENTED_EDGE('',*,*,#382,.T.);
#495=ORIENTED_EDGE('',*,*,#383,.T.);
#496=ORIENTED_EDGE('',*,*,#380,.F.);
#497=ORIENTED_EDGE('',*,*,#384,.T.);
#498=ORIENTED_EDGE('',*,*,#378,.F.);
#499=ORIENTED_EDGE('',*,*,#385,.T.);
#500=ORIENTED_EDGE('',*,*,#382,.F.);
#501=ORIENTED_EDGE('',*,*,#372,.T.);
#502=ORIENTED_EDGE('',*,*,#377,.F.);
#503=ORIENTED_EDGE('',*,*,#359,.F.);
#504=ORIENTED_EDGE('',*,*,#373,.F.);
#505=ORIENTED_EDGE('',*,*,#381,.F.);
#506=ORIENTED_EDGE('',*,*,#386,.F.);
#507=ORIENTED_EDGE('',*,*,#379,.F.);
#508=ORIENTED_EDGE('',*,*,#385,.F.);
#509=ORIENTED_EDGE('',*,*,#376,.F.);
#510=ORIENTED_EDGE('',*,*,#384,.F.);
#511=ORIENTED_EDGE('',*,*,#367,.F.);
#512=ORIENTED_EDGE('',*,*,#386,.T.);
#513=ORIENTED_EDGE('',*,*,#383,.F.);
#514=ORIENTED_EDGE('',*,*,#374,.T.);
#515=ORIENTED_EDGE('',*,*,#387,.T.);
#516=ORIENTED_EDGE('',*,*,#388,.F.);
#517=ORIENTED_EDGE('',*,*,#389,.F.);
#518=ORIENTED_EDGE('',*,*,#390,.T.);
#519=ORIENTED_EDGE('',*,*,#391,.T.);
#520=ORIENTED_EDGE('',*,*,#392,.T.);
#521=ORIENTED_EDGE('',*,*,#393,.T.);
#522=ORIENTED_EDGE('',*,*,#394,.T.);
#523=ORIENTED_EDGE('',*,*,#395,.T.);
#524=ORIENTED_EDGE('',*,*,#387,.F.);
#525=ORIENTED_EDGE('',*,*,#396,.F.);
#526=ORIENTED_EDGE('',*,*,#397,.T.);
#527=ORIENTED_EDGE('',*,*,#398,.T.);
#528=ORIENTED_EDGE('',*,*,#399,.T.);
#529=ORIENTED_EDGE('',*,*,#400,.T.);
#530=ORIENTED_EDGE('',*,*,#401,.T.);
#531=ORIENTED_EDGE('',*,*,#402,.F.);
#532=ORIENTED_EDGE('',*,*,#403,.F.);
#533=ORIENTED_EDGE('',*,*,#404,.F.);
#534=ORIENTED_EDGE('',*,*,#392,.F.);
#535=ORIENTED_EDGE('',*,*,#404,.T.);
#536=ORIENTED_EDGE('',*,*,#405,.F.);
#537=ORIENTED_EDGE('',*,*,#406,.F.);
#538=ORIENTED_EDGE('',*,*,#393,.F.);
#539=ORIENTED_EDGE('',*,*,#406,.T.);
#540=ORIENTED_EDGE('',*,*,#407,.F.);
#541=ORIENTED_EDGE('',*,*,#408,.F.);
#542=ORIENTED_EDGE('',*,*,#394,.F.);
#543=ORIENTED_EDGE('',*,*,#408,.T.);
#544=ORIENTED_EDGE('',*,*,#409,.F.);
#545=ORIENTED_EDGE('',*,*,#388,.T.);
#546=ORIENTED_EDGE('',*,*,#395,.F.);
#547=ORIENTED_EDGE('',*,*,#410,.F.);
#548=ORIENTED_EDGE('',*,*,#411,.F.);
#549=ORIENTED_EDGE('',*,*,#396,.T.);
#550=ORIENTED_EDGE('',*,*,#390,.F.);
#551=ORIENTED_EDGE('',*,*,#411,.T.);
#552=ORIENTED_EDGE('',*,*,#412,.F.);
#553=ORIENTED_EDGE('',*,*,#413,.F.);
#554=ORIENTED_EDGE('',*,*,#397,.F.);
#555=ORIENTED_EDGE('',*,*,#413,.T.);
#556=ORIENTED_EDGE('',*,*,#414,.F.);
#557=ORIENTED_EDGE('',*,*,#415,.F.);
#558=ORIENTED_EDGE('',*,*,#398,.F.);
#559=ORIENTED_EDGE('',*,*,#415,.T.);
#560=ORIENTED_EDGE('',*,*,#416,.F.);
#561=ORIENTED_EDGE('',*,*,#417,.F.);
#562=ORIENTED_EDGE('',*,*,#399,.F.);
#563=ORIENTED_EDGE('',*,*,#417,.T.);
#564=ORIENTED_EDGE('',*,*,#418,.F.);
#565=ORIENTED_EDGE('',*,*,#419,.F.);
#566=ORIENTED_EDGE('',*,*,#400,.F.);
#567=ORIENTED_EDGE('',*,*,#419,.T.);
#568=ORIENTED_EDGE('',*,*,#420,.F.);
#569=ORIENTED_EDGE('',*,*,#421,.F.);
#570=ORIENTED_EDGE('',*,*,#401,.F.);
#571=ORIENTED_EDGE('',*,*,#421,.T.);
#572=ORIENTED_EDGE('',*,*,#422,.F.);
#573=ORIENTED_EDGE('',*,*,#402,.T.);
#574=ORIENTED_EDGE('',*,*,#391,.F.);
#575=ORIENTED_EDGE('',*,*,#422,.T.);
#576=ORIENTED_EDGE('',*,*,#420,.T.);
#577=ORIENTED_EDGE('',*,*,#418,.T.);
#578=ORIENTED_EDGE('',*,*,#416,.T.);
#579=ORIENTED_EDGE('',*,*,#414,.T.);
#580=ORIENTED_EDGE('',*,*,#412,.T.);
#581=ORIENTED_EDGE('',*,*,#410,.T.);
#582=ORIENTED_EDGE('',*,*,#389,.T.);
#583=ORIENTED_EDGE('',*,*,#409,.T.);
#584=ORIENTED_EDGE('',*,*,#407,.T.);
#585=ORIENTED_EDGE('',*,*,#405,.T.);
#586=ORIENTED_EDGE('',*,*,#403,.T.);
#587=ORIENTED_EDGE('',*,*,#423,.F.);
#588=ORIENTED_EDGE('',*,*,#424,.F.);
#589=ORIENTED_EDGE('',*,*,#425,.T.);
#590=ORIENTED_EDGE('',*,*,#426,.T.);
#591=ORIENTED_EDGE('',*,*,#427,.F.);
#592=ORIENTED_EDGE('',*,*,#428,.F.);
#593=ORIENTED_EDGE('',*,*,#429,.F.);
#594=ORIENTED_EDGE('',*,*,#430,.F.);
#595=ORIENTED_EDGE('',*,*,#431,.F.);
#596=ORIENTED_EDGE('',*,*,#432,.F.);
#597=ORIENTED_EDGE('',*,*,#433,.T.);
#598=ORIENTED_EDGE('',*,*,#423,.T.);
#599=ORIENTED_EDGE('',*,*,#434,.F.);
#600=ORIENTED_EDGE('',*,*,#435,.F.);
#601=ORIENTED_EDGE('',*,*,#436,.F.);
#602=ORIENTED_EDGE('',*,*,#437,.F.);
#603=ORIENTED_EDGE('',*,*,#438,.T.);
#604=ORIENTED_EDGE('',*,*,#437,.T.);
#605=ORIENTED_EDGE('',*,*,#439,.T.);
#606=ORIENTED_EDGE('',*,*,#440,.T.);
#607=ORIENTED_EDGE('',*,*,#439,.F.);
#608=ORIENTED_EDGE('',*,*,#436,.T.);
#609=ORIENTED_EDGE('',*,*,#441,.T.);
#610=ORIENTED_EDGE('',*,*,#442,.T.);
#611=ORIENTED_EDGE('',*,*,#441,.F.);
#612=ORIENTED_EDGE('',*,*,#435,.T.);
#613=ORIENTED_EDGE('',*,*,#443,.T.);
#614=ORIENTED_EDGE('',*,*,#444,.T.);
#615=ORIENTED_EDGE('',*,*,#443,.F.);
#616=ORIENTED_EDGE('',*,*,#434,.T.);
#617=ORIENTED_EDGE('',*,*,#426,.F.);
#618=ORIENTED_EDGE('',*,*,#445,.T.);
#619=ORIENTED_EDGE('',*,*,#446,.T.);
#620=ORIENTED_EDGE('',*,*,#424,.T.);
#621=ORIENTED_EDGE('',*,*,#433,.F.);
#622=ORIENTED_EDGE('',*,*,#447,.T.);
#623=ORIENTED_EDGE('',*,*,#447,.F.);
#624=ORIENTED_EDGE('',*,*,#432,.T.);
#625=ORIENTED_EDGE('',*,*,#448,.T.);
#626=ORIENTED_EDGE('',*,*,#449,.T.);
#627=ORIENTED_EDGE('',*,*,#448,.F.);
#628=ORIENTED_EDGE('',*,*,#431,.T.);
#629=ORIENTED_EDGE('',*,*,#450,.T.);
#630=ORIENTED_EDGE('',*,*,#451,.T.);
#631=ORIENTED_EDGE('',*,*,#450,.F.);
#632=ORIENTED_EDGE('',*,*,#430,.T.);
#633=ORIENTED_EDGE('',*,*,#452,.T.);
#634=ORIENTED_EDGE('',*,*,#453,.T.);
#635=ORIENTED_EDGE('',*,*,#452,.F.);
#636=ORIENTED_EDGE('',*,*,#429,.T.);
#637=ORIENTED_EDGE('',*,*,#454,.T.);
#638=ORIENTED_EDGE('',*,*,#455,.T.);
#639=ORIENTED_EDGE('',*,*,#454,.F.);
#640=ORIENTED_EDGE('',*,*,#428,.T.);
#641=ORIENTED_EDGE('',*,*,#456,.T.);
#642=ORIENTED_EDGE('',*,*,#457,.T.);
#643=ORIENTED_EDGE('',*,*,#456,.F.);
#644=ORIENTED_EDGE('',*,*,#427,.T.);
#645=ORIENTED_EDGE('',*,*,#438,.F.);
#646=ORIENTED_EDGE('',*,*,#458,.T.);
#647=ORIENTED_EDGE('',*,*,#458,.F.);
#648=ORIENTED_EDGE('',*,*,#440,.F.);
#649=ORIENTED_EDGE('',*,*,#442,.F.);
#650=ORIENTED_EDGE('',*,*,#444,.F.);
#651=ORIENTED_EDGE('',*,*,#445,.F.);
#652=ORIENTED_EDGE('',*,*,#425,.F.);
#653=ORIENTED_EDGE('',*,*,#446,.F.);
#654=ORIENTED_EDGE('',*,*,#449,.F.);
#655=ORIENTED_EDGE('',*,*,#451,.F.);
#656=ORIENTED_EDGE('',*,*,#453,.F.);
#657=ORIENTED_EDGE('',*,*,#455,.F.);
#658=ORIENTED_EDGE('',*,*,#457,.F.);
#659=PLANE('',#751);
#660=PLANE('',#752);
#661=PLANE('',#753);
#662=PLANE('',#754);
#663=PLANE('',#755);
#664=PLANE('',#756);
#665=PLANE('',#757);
#666=PLANE('',#758);
#667=PLANE('',#759);
#668=PLANE('',#760);
#669=PLANE('',#761);
#670=PLANE('',#762);
#671=PLANE('',#763);
#672=PLANE('',#764);
#673=PLANE('',#765);
#674=PLANE('',#766);
#675=PLANE('',#773);
#676=PLANE('',#776);
#677=PLANE('',#777);
#678=PLANE('',#780);
#679=PLANE('',#783);
#680=PLANE('',#784);
#681=PLANE('',#785);
#682=PLANE('',#786);
#683=PLANE('',#787);
#684=PLANE('',#788);
#685=PLANE('',#795);
#686=PLANE('',#798);
#687=PLANE('',#799);
#688=PLANE('',#802);
#689=PLANE('',#805);
#690=PLANE('',#806);
#691=PLANE('',#807);
#692=PLANE('',#808);
#693=ADVANCED_FACE('',(#43),#659,.T.);
#694=ADVANCED_FACE('',(#44),#660,.T.);
#695=ADVANCED_FACE('',(#45),#661,.T.);
#696=ADVANCED_FACE('',(#46),#662,.T.);
#697=ADVANCED_FACE('',(#47),#663,.T.);
#698=ADVANCED_FACE('',(#48),#664,.T.);
#699=ADVANCED_FACE('',(#49),#665,.T.);
#700=ADVANCED_FACE('',(#50),#666,.T.);
#701=ADVANCED_FACE('',(#51),#667,.T.);
#702=ADVANCED_FACE('',(#52),#668,.T.);
#703=ADVANCED_FACE('',(#53),#669,.T.);
#704=ADVANCED_FACE('',(#54),#670,.T.);
#705=ADVANCED_FACE('',(#55),#671,.T.);
#706=ADVANCED_FACE('',(#56),#672,.T.);
#707=ADVANCED_FACE('',(#57),#673,.T.);
#708=ADVANCED_FACE('',(#58),#674,.F.);
#709=ADVANCED_FACE('',(#59),#13,.F.);
#710=ADVANCED_FACE('',(#60),#675,.T.);
#711=ADVANCED_FACE('',(#61),#14,.F.);
#712=ADVANCED_FACE('',(#62),#676,.T.);
#713=ADVANCED_FACE('',(#63),#677,.T.);
#714=ADVANCED_FACE('',(#64),#15,.T.);
#715=ADVANCED_FACE('',(#65),#678,.T.);
#716=ADVANCED_FACE('',(#66),#16,.T.);
#717=ADVANCED_FACE('',(#67),#679,.T.);
#718=ADVANCED_FACE('',(#68),#680,.T.);
#719=ADVANCED_FACE('',(#69),#681,.T.);
#720=ADVANCED_FACE('',(#70),#682,.T.);
#721=ADVANCED_FACE('',(#71),#683,.F.);
#722=ADVANCED_FACE('',(#72),#684,.T.);
#723=ADVANCED_FACE('',(#73),#17,.F.);
#724=ADVANCED_FACE('',(#74),#685,.F.);
#725=ADVANCED_FACE('',(#75),#18,.F.);
#726=ADVANCED_FACE('',(#76),#686,.F.);
#727=ADVANCED_FACE('',(#77),#687,.F.);
#728=ADVANCED_FACE('',(#78),#19,.T.);
#729=ADVANCED_FACE('',(#79),#688,.F.);
#730=ADVANCED_FACE('',(#80),#20,.T.);
#731=ADVANCED_FACE('',(#81),#689,.F.);
#732=ADVANCED_FACE('',(#82),#690,.F.);
#733=ADVANCED_FACE('',(#83),#691,.F.);
#734=ADVANCED_FACE('',(#84),#692,.F.);
#735=CLOSED_SHELL('',(#693,#694,#695,#696,#697,#698,#699,#700,#701,#702,
#703,#704,#705,#706));
#736=CLOSED_SHELL('',(#707,#708,#709,#710,#711,#712,#713,#714,#715,#716,
#717,#718,#719,#720));
#737=CLOSED_SHELL('',(#721,#722,#723,#724,#725,#726,#727,#728,#729,#730,
#731,#732,#733,#734));
#738=DERIVED_UNIT_ELEMENT(#740,1.);
#739=DERIVED_UNIT_ELEMENT(#1223,-3.);
#740=(
MASS_UNIT()
NAMED_UNIT(*)
SI_UNIT(.KILO.,.GRAM.)
);
#741=DERIVED_UNIT((#738,#739));
#742=MEASURE_REPRESENTATION_ITEM('density measure',
POSITIVE_RATIO_MEASURE(7870.),#741);
#743=PROPERTY_DEFINITION_REPRESENTATION(#748,#745);
#744=PROPERTY_DEFINITION_REPRESENTATION(#749,#746);
#745=REPRESENTATION('material name',(#747),#1220);
#746=REPRESENTATION('density',(#742),#1220);
#747=DESCRIPTIVE_REPRESENTATION_ITEM('Steel AISI 1080 410 QT',
'Steel AISI 1080 410 QT');
#748=PROPERTY_DEFINITION('material property','material name',#1230);
#749=PROPERTY_DEFINITION('material property','density of part',#1230);
#750=AXIS2_PLACEMENT_3D('',#1011,#809,#810);
#751=AXIS2_PLACEMENT_3D('',#1012,#811,#812);
#752=AXIS2_PLACEMENT_3D('',#1021,#817,#818);
#753=AXIS2_PLACEMENT_3D('',#1030,#823,#824);
#754=AXIS2_PLACEMENT_3D('',#1033,#827,#828);
#755=AXIS2_PLACEMENT_3D('',#1036,#831,#832);
#756=AXIS2_PLACEMENT_3D('',#1042,#836,#837);
#757=AXIS2_PLACEMENT_3D('',#1046,#840,#841);
#758=AXIS2_PLACEMENT_3D('',#1047,#842,#843);
#759=AXIS2_PLACEMENT_3D('',#1053,#847,#848);
#760=AXIS2_PLACEMENT_3D('',#1061,#853,#854);
#761=AXIS2_PLACEMENT_3D('',#1064,#857,#858);
#762=AXIS2_PLACEMENT_3D('',#1066,#860,#861);
#763=AXIS2_PLACEMENT_3D('',#1068,#863,#864);
#764=AXIS2_PLACEMENT_3D('',#1069,#865,#866);
#765=AXIS2_PLACEMENT_3D('',#1070,#867,#868);
#766=AXIS2_PLACEMENT_3D('',#1079,#873,#874);
#767=AXIS2_PLACEMENT_3D('',#1084,#876,#877);
#768=AXIS2_PLACEMENT_3D('',#1088,#879,#880);
#769=AXIS2_PLACEMENT_3D('',#1093,#883,#884);
#770=AXIS2_PLACEMENT_3D('',#1097,#886,#887);
#771=AXIS2_PLACEMENT_3D('',#1101,#890,#891);
#772=AXIS2_PLACEMENT_3D('',#1105,#893,#894);
#773=AXIS2_PLACEMENT_3D('',#1107,#896,#897);
#774=AXIS2_PLACEMENT_3D('',#1111,#900,#901);
#775=AXIS2_PLACEMENT_3D('',#1113,#902,#903);
#776=AXIS2_PLACEMENT_3D('',#1115,#905,#906);
#777=AXIS2_PLACEMENT_3D('',#1117,#908,#909);
#778=AXIS2_PLACEMENT_3D('',#1121,#912,#913);
#779=AXIS2_PLACEMENT_3D('',#1123,#914,#915);
#780=AXIS2_PLACEMENT_3D('',#1125,#917,#918);
#781=AXIS2_PLACEMENT_3D('',#1129,#921,#922);
#782=AXIS2_PLACEMENT_3D('',#1131,#923,#924);
#783=AXIS2_PLACEMENT_3D('',#1133,#926,#927);
#784=AXIS2_PLACEMENT_3D('',#1137,#930,#931);
#785=AXIS2_PLACEMENT_3D('',#1141,#934,#935);
#786=AXIS2_PLACEMENT_3D('',#1143,#937,#938);
#787=AXIS2_PLACEMENT_3D('',#1144,#939,#940);
#788=AXIS2_PLACEMENT_3D('',#1153,#945,#946);
#789=AXIS2_PLACEMENT_3D('',#1162,#950,#951);
#790=AXIS2_PLACEMENT_3D('',#1166,#953,#954);
#791=AXIS2_PLACEMENT_3D('',#1171,#957,#958);
#792=AXIS2_PLACEMENT_3D('',#1174,#960,#961);
#793=AXIS2_PLACEMENT_3D('',#1175,#962,#963);
#794=AXIS2_PLACEMENT_3D('',#1180,#966,#967);
#795=AXIS2_PLACEMENT_3D('',#1181,#968,#969);
#796=AXIS2_PLACEMENT_3D('',#1185,#972,#973);
#797=AXIS2_PLACEMENT_3D('',#1188,#975,#976);
#798=AXIS2_PLACEMENT_3D('',#1189,#977,#978);
#799=AXIS2_PLACEMENT_3D('',#1191,#980,#981);
#800=AXIS2_PLACEMENT_3D('',#1195,#984,#985);
#801=AXIS2_PLACEMENT_3D('',#1198,#987,#988);
#802=AXIS2_PLACEMENT_3D('',#1199,#989,#990);
#803=AXIS2_PLACEMENT_3D('',#1203,#993,#994);
#804=AXIS2_PLACEMENT_3D('',#1206,#996,#997);
#805=AXIS2_PLACEMENT_3D('',#1207,#998,#999);
#806=AXIS2_PLACEMENT_3D('',#1211,#1002,#1003);
#807=AXIS2_PLACEMENT_3D('',#1215,#1006,#1007);
#808=AXIS2_PLACEMENT_3D('',#1217,#1009,#1010);
#809=DIRECTION('axis',(0.,0.,1.));
#810=DIRECTION('refdir',(1.,0.,0.));
#811=DIRECTION('center_axis',(-0.997054485501581,-0.0766964988847447,0.));
#812=DIRECTION('ref_axis',(0.,0.,1.));
#813=DIRECTION('',(0.,0.,-1.));
#814=DIRECTION('',(0.0764719112901949,-0.994134846772434,0.0764719112901873));
#815=DIRECTION('',(0.,0.,1.));
#816=DIRECTION('',(-0.0764719112901949,0.994134846772434,0.0764719112901873));
#817=DIRECTION('center_axis',(0.997054485501582,-0.0766964988847371,0.));
#818=DIRECTION('ref_axis',(0.,0.,-1.));
#819=DIRECTION('',(0.,0.,-1.));
#820=DIRECTION('',(0.0764719112901873,0.994134846772434,-0.0764719112901873));
#821=DIRECTION('',(0.,0.,1.));
#822=DIRECTION('',(-0.0764719112901873,-0.994134846772434,-0.0764719112901873));
#823=DIRECTION('center_axis',(0.,-0.0766964988847371,-0.997054485501582));
#824=DIRECTION('ref_axis',(-1.,0.,0.));
#825=DIRECTION('',(1.,0.,0.));
#826=DIRECTION('',(-1.,0.,0.));
#827=DIRECTION('center_axis',(0.,-0.0766964988847371,0.997054485501582));
#828=DIRECTION('ref_axis',(1.,0.,0.));
#829=DIRECTION('',(1.,0.,0.));
#830=DIRECTION('',(-1.,0.,0.));
#831=DIRECTION('center_axis',(0.,0.,1.));
#832=DIRECTION('ref_axis',(1.,0.,0.));
#833=DIRECTION('',(0.,1.,0.));
#834=DIRECTION('',(1.,0.,0.));
#835=DIRECTION('',(7.67140669606634E-15,-1.,0.));
#836=DIRECTION('center_axis',(1.,0.,0.));
#837=DIRECTION('ref_axis',(0.,1.,0.));
#838=DIRECTION('',(0.,-1.,0.));
#839=DIRECTION('',(0.,0.,-1.));
#840=DIRECTION('center_axis',(0.,-1.,0.));
#841=DIRECTION('ref_axis',(1.,0.,0.));
#842=DIRECTION('center_axis',(0.99654575824488,0.08304547985374,0.));
#843=DIRECTION('ref_axis',(0.,0.,-1.));
#844=DIRECTION('',(0.,0.,1.));
#845=DIRECTION('',(0.0827605888602369,-0.993127066322842,0.0827605888602369));
#846=DIRECTION('',(-0.0827605888602369,0.993127066322842,0.0827605888602369));
#847=DIRECTION('center_axis',(-0.99654575824488,0.0830454798537325,0.));
#848=DIRECTION('ref_axis',(0.,0.,1.));
#849=DIRECTION('',(0.,0.,-1.));
#850=DIRECTION('',(-0.0827605888602293,-0.993127066322842,-0.0827605888602369));
#851=DIRECTION('',(0.,0.,1.));
#852=DIRECTION('',(0.0827605888602293,0.993127066322842,-0.0827605888602369));
#853=DIRECTION('center_axis',(0.,0.08304547985374,-0.99654575824488));
#854=DIRECTION('ref_axis',(-1.,0.,0.));
#855=DIRECTION('',(-1.,0.,0.));
#856=DIRECTION('',(1.,0.,0.));
#857=DIRECTION('center_axis',(0.,0.08304547985374,0.99654575824488));
#858=DIRECTION('ref_axis',(1.,0.,0.));
#859=DIRECTION('',(-1.,0.,0.));
#860=DIRECTION('center_axis',(-1.,-7.67140669606634E-15,0.));
#861=DIRECTION('ref_axis',(7.67140669606634E-15,-1.,0.));
#862=DIRECTION('',(-7.67140669606634E-15,1.,0.));
#863=DIRECTION('center_axis',(0.,1.,0.));
#864=DIRECTION('ref_axis',(-1.,0.,0.));
#865=DIRECTION('center_axis',(0.,0.,-1.));
#866=DIRECTION('ref_axis',(-1.,0.,0.));
#867=DIRECTION('center_axis',(-1.,0.,0.));
#868=DIRECTION('ref_axis',(0.,1.,0.));
#869=DIRECTION('',(0.,-1.,0.));
#870=DIRECTION('',(0.,0.,-1.));
#871=DIRECTION('',(0.,-1.,0.));
#872=DIRECTION('',(0.,0.,-1.));
#873=DIRECTION('center_axis',(0.,0.,1.));
#874=DIRECTION('ref_axis',(1.,0.,0.));
#875=DIRECTION('',(1.,3.33600668457078E-16,0.));
#876=DIRECTION('center_axis',(0.,0.,1.));
#877=DIRECTION('ref_axis',(0.,-1.,0.));
#878=DIRECTION('',(0.,1.,0.));
#879=DIRECTION('center_axis',(0.,0.,1.));
#880=DIRECTION('ref_axis',(1.,6.93889390390722E-16,0.));
#881=DIRECTION('',(-1.,0.,0.));
#882=DIRECTION('',(-1.,0.,0.));
#883=DIRECTION('center_axis',(0.,0.,-1.));
#884=DIRECTION('ref_axis',(0.999998336795784,-0.00182384365146882,0.));
#885=DIRECTION('',(0.,-1.,0.));
#886=DIRECTION('center_axis',(0.,0.,-1.));
#887=DIRECTION('ref_axis',(0.,-1.,0.));
#888=DIRECTION('',(-1.,-2.66880534765663E-16,0.));
#889=DIRECTION('',(0.,1.,0.));
#890=DIRECTION('center_axis',(0.,0.,1.));
#891=DIRECTION('ref_axis',(0.,-1.,0.));
#892=DIRECTION('',(0.,0.,-1.));
#893=DIRECTION('center_axis',(0.,0.,-1.));
#894=DIRECTION('ref_axis',(0.,-1.,0.));
#895=DIRECTION('',(0.,0.,1.));
#896=DIRECTION('center_axis',(-1.,0.,0.));
#897=DIRECTION('ref_axis',(0.,-1.,0.));
#898=DIRECTION('',(0.,-1.,0.));
#899=DIRECTION('',(0.,0.,1.));
#900=DIRECTION('center_axis',(0.,0.,1.));
#901=DIRECTION('ref_axis',(1.,6.93889390390722E-16,0.));
#902=DIRECTION('center_axis',(0.,0.,-1.));
#903=DIRECTION('ref_axis',(1.,6.93889390390722E-16,0.));
#904=DIRECTION('',(0.,0.,1.));
#905=DIRECTION('center_axis',(0.,-1.,0.));
#906=DIRECTION('ref_axis',(1.,0.,0.));
#907=DIRECTION('',(1.,0.,0.));
#908=DIRECTION('center_axis',(0.,1.,0.));
#909=DIRECTION('ref_axis',(-1.,0.,0.));
#910=DIRECTION('',(-1.,0.,0.));
#911=DIRECTION('',(0.,0.,1.));
#912=DIRECTION('center_axis',(0.,0.,1.));
#913=DIRECTION('ref_axis',(0.999998336795784,-0.00182384365146882,0.));
#914=DIRECTION('center_axis',(0.,0.,1.));
#915=DIRECTION('ref_axis',(0.999998336795784,-0.00182384365146882,0.));
#916=DIRECTION('',(0.,0.,1.));
#917=DIRECTION('center_axis',(1.,0.,0.));
#918=DIRECTION('ref_axis',(0.,1.,0.));
#919=DIRECTION('',(0.,1.,0.));
#920=DIRECTION('',(0.,0.,1.));
#921=DIRECTION('center_axis',(0.,0.,1.));
#922=DIRECTION('ref_axis',(0.,-1.,0.));
#923=DIRECTION('center_axis',(0.,0.,1.));
#924=DIRECTION('ref_axis',(0.,-1.,0.));
#925=DIRECTION('',(0.,0.,1.));
#926=DIRECTION('center_axis',(2.66880534765663E-16,-1.,0.));
#927=DIRECTION('ref_axis',(1.,2.66880534765663E-16,0.));
#928=DIRECTION('',(1.,2.66880534765663E-16,0.));
#929=DIRECTION('',(0.,0.,1.));
#930=DIRECTION('center_axis',(-1.,0.,0.));
#931=DIRECTION('ref_axis',(0.,-1.,0.));
#932=DIRECTION('',(0.,-1.,0.));
#933=DIRECTION('',(0.,0.,1.));
#934=DIRECTION('center_axis',(-3.33600668457078E-16,1.,0.));
#935=DIRECTION('ref_axis',(-1.,-3.33600668457078E-16,0.));
#936=DIRECTION('',(-1.,-3.33600668457078E-16,0.));
#937=DIRECTION('center_axis',(0.,0.,1.));
#938=DIRECTION('ref_axis',(1.,0.,0.));
#939=DIRECTION('center_axis',(-1.,0.,0.));
#940=DIRECTION('ref_axis',(0.,1.,0.));
#941=DIRECTION('',(0.,-1.,0.));
#942=DIRECTION('',(0.,0.,-1.));
#943=DIRECTION('',(0.,-1.,0.));
#944=DIRECTION('',(0.,0.,-1.));
#945=DIRECTION('center_axis',(0.,0.,-1.));
#946=DIRECTION('ref_axis',(-1.,0.,0.));
#947=DIRECTION('',(-1.,3.33600668457078E-16,0.));
#948=DIRECTION('',(0.,1.,0.));
#949=DIRECTION('',(1.,-2.66880534765663E-16,0.));
#950=DIRECTION('center_axis',(0.,0.,1.));
#951=DIRECTION('ref_axis',(0.,-1.,0.));
#952=DIRECTION('',(0.,-1.,0.));
#953=DIRECTION('center_axis',(0.,0.,1.));
#954=DIRECTION('ref_axis',(-0.999998336795784,-0.00182384365146882,0.));
#955=DIRECTION('',(1.,0.,0.));
#956=DIRECTION('',(1.,0.,0.));
#957=DIRECTION('center_axis',(0.,0.,-1.));
#958=DIRECTION('ref_axis',(-1.,6.93889390390722E-16,0.));
#959=DIRECTION('',(0.,1.,0.));
#960=DIRECTION('center_axis',(0.,0.,-1.));
#961=DIRECTION('ref_axis',(0.,-1.,0.));
#962=DIRECTION('center_axis',(0.,0.,-1.));
#963=DIRECTION('ref_axis',(0.,-1.,0.));
#964=DIRECTION('',(0.,0.,-1.));
#965=DIRECTION('',(0.,0.,1.));
#966=DIRECTION('center_axis',(0.,0.,1.));
#967=DIRECTION('ref_axis',(0.,-1.,0.));
#968=DIRECTION('center_axis',(-1.,0.,0.));
#969=DIRECTION('ref_axis',(0.,-1.,0.));
#970=DIRECTION('',(0.,0.,1.));
#971=DIRECTION('',(0.,-1.,0.));
#972=DIRECTION('center_axis',(0.,0.,-1.));
#973=DIRECTION('ref_axis',(-1.,6.93889390390722E-16,0.));
#974=DIRECTION('',(0.,0.,1.));
#975=DIRECTION('center_axis',(0.,0.,1.));
#976=DIRECTION('ref_axis',(-1.,6.93889390390722E-16,0.));
#977=DIRECTION('center_axis',(0.,1.,0.));
#978=DIRECTION('ref_axis',(-1.,0.,0.));
#979=DIRECTION('',(-1.,0.,0.));
#980=DIRECTION('center_axis',(0.,-1.,0.));
#981=DIRECTION('ref_axis',(1.,0.,0.));
#982=DIRECTION('',(1.,0.,0.));
#983=DIRECTION('',(0.,0.,1.));
#984=DIRECTION('center_axis',(0.,0.,-1.));
#985=DIRECTION('ref_axis',(-0.999998336795784,-0.00182384365146882,0.));
#986=DIRECTION('',(0.,0.,1.));
#987=DIRECTION('center_axis',(0.,0.,-1.));
#988=DIRECTION('ref_axis',(-0.999998336795784,-0.00182384365146882,0.));
#989=DIRECTION('center_axis',(1.,0.,0.));
#990=DIRECTION('ref_axis',(0.,1.,0.));
#991=DIRECTION('',(0.,0.,1.));
#992=DIRECTION('',(0.,1.,0.));
#993=DIRECTION('center_axis',(0.,0.,-1.));
#994=DIRECTION('ref_axis',(0.,-1.,0.));
#995=DIRECTION('',(0.,0.,1.));
#996=DIRECTION('center_axis',(0.,0.,-1.));
#997=DIRECTION('ref_axis',(0.,-1.,0.));
#998=DIRECTION('center_axis',(2.66880534765663E-16,1.,0.));
#999=DIRECTION('ref_axis',(-1.,2.66880534765663E-16,0.));
#1000=DIRECTION('',(0.,0.,1.));
#1001=DIRECTION('',(-1.,2.66880534765663E-16,0.));
#1002=DIRECTION('center_axis',(-1.,0.,0.));
#1003=DIRECTION('ref_axis',(0.,-1.,0.));
#1004=DIRECTION('',(0.,0.,1.));
#1005=DIRECTION('',(0.,-1.,0.));
#1006=DIRECTION('center_axis',(-3.33600668457078E-16,-1.,0.));
#1007=DIRECTION('ref_axis',(1.,-3.33600668457078E-16,0.));
#1008=DIRECTION('',(1.,-3.33600668457078E-16,0.));
#1009=DIRECTION('center_axis',(0.,0.,-1.));
#1010=DIRECTION('ref_axis',(-1.,0.,0.));
#1011=CARTESIAN_POINT('',(0.,0.,0.));
#1012=CARTESIAN_POINT('Origin',(-2.1075,0.65,0.));
#1013=CARTESIAN_POINT('',(-2.1575,1.3,1.81));
#1014=CARTESIAN_POINT('',(-2.1575,1.3,-1.81));
#1015=CARTESIAN_POINT('',(-2.1575,1.3,0.));
#1016=CARTESIAN_POINT('',(-2.05749999999999,0.,-1.71));
#1017=CARTESIAN_POINT('',(-2.1575,1.3,-1.81));
#1018=CARTESIAN_POINT('',(-2.05749999999999,0.,1.71));
#1019=CARTESIAN_POINT('',(-2.05749999999999,0.,0.));
#1020=CARTESIAN_POINT('',(-2.05749999999999,0.,1.71));
#1021=CARTESIAN_POINT('Origin',(2.10749999999999,0.65,0.));
#1022=CARTESIAN_POINT('',(2.05749999999999,0.,1.71));
#1023=CARTESIAN_POINT('',(2.05749999999999,0.,-1.71));
#1024=CARTESIAN_POINT('',(2.05749999999999,0.,0.));
#1025=CARTESIAN_POINT('',(2.15749999999999,1.3,-1.81));
#1026=CARTESIAN_POINT('',(2.05749999999999,0.,-1.71));
#1027=CARTESIAN_POINT('',(2.15749999999999,1.3,1.81));
#1028=CARTESIAN_POINT('',(2.15749999999999,1.3,0.));
#1029=CARTESIAN_POINT('',(2.15749999999999,1.3,1.81));
#1030=CARTESIAN_POINT('Origin',(-1.07875,0.65,-1.76));
#1031=CARTESIAN_POINT('',(-1.07875,1.3,-1.81));
#1032=CARTESIAN_POINT('',(-1.07875,0.,-1.71));
#1033=CARTESIAN_POINT('Origin',(-1.07875,0.65,1.76));
#1034=CARTESIAN_POINT('',(-1.07875,0.,1.71));
#1035=CARTESIAN_POINT('',(-1.07875,1.3,1.81));
#1036=CARTESIAN_POINT('Origin',(-9.99200722162641E-15,1.3025,1.81));
#1037=CARTESIAN_POINT('',(2.15749999999999,1.405,1.81));
#1038=CARTESIAN_POINT('',(2.15749999999999,2.605,1.81));
#1039=CARTESIAN_POINT('',(-2.1575,1.405,1.81));
#1040=CARTESIAN_POINT('',(1.07874999999999,1.405,1.81));
#1041=CARTESIAN_POINT('',(-2.15749999999999,0.,1.81));
#1042=CARTESIAN_POINT('Origin',(2.15749999999999,0.,0.));
#1043=CARTESIAN_POINT('',(2.15749999999999,1.405,-1.81));
#1044=CARTESIAN_POINT('',(2.15749999999999,2.605,-1.81));
#1045=CARTESIAN_POINT('',(2.15749999999999,1.405,0.));
#1046=CARTESIAN_POINT('Origin',(-2.15749999999999,0.,0.));
#1047=CARTESIAN_POINT('Origin',(2.10749999999999,2.005,0.));
#1048=CARTESIAN_POINT('',(2.05749999999999,2.605,-1.71));
#1049=CARTESIAN_POINT('',(2.05749999999999,2.605,1.71));
#1050=CARTESIAN_POINT('',(2.05749999999999,2.605,0.));
#1051=CARTESIAN_POINT('',(2.05749999999999,2.605,1.71));
#1052=CARTESIAN_POINT('',(2.15749999999999,1.405,-1.81));
#1053=CARTESIAN_POINT('Origin',(-2.10750000000001,2.005,0.));
#1054=CARTESIAN_POINT('',(-2.05750000000001,2.605,1.71));
#1055=CARTESIAN_POINT('',(-2.05750000000001,2.605,-1.71));
#1056=CARTESIAN_POINT('',(-2.05750000000001,2.605,0.));
#1057=CARTESIAN_POINT('',(-2.1575,1.405,-1.81));
#1058=CARTESIAN_POINT('',(-2.05750000000001,2.605,-1.71));
#1059=CARTESIAN_POINT('',(-2.1575,1.405,0.));
#1060=CARTESIAN_POINT('',(-2.1575,1.405,1.81));
#1061=CARTESIAN_POINT('Origin',(1.07874999999999,2.005,-1.76));
#1062=CARTESIAN_POINT('',(1.07874999999999,1.405,-1.81));
#1063=CARTESIAN_POINT('',(1.07874999999999,2.605,-1.71));
#1064=CARTESIAN_POINT('Origin',(1.07874999999999,2.005,1.76));
#1065=CARTESIAN_POINT('',(1.07874999999999,2.605,1.71));
#1066=CARTESIAN_POINT('Origin',(-2.15750000000001,2.605,0.));
#1067=CARTESIAN_POINT('',(-2.15749999999999,0.,-1.81));
#1068=CARTESIAN_POINT('Origin',(2.15749999999999,2.605,0.));
#1069=CARTESIAN_POINT('Origin',(-9.99200722162641E-15,1.3025,-1.81));
#1070=CARTESIAN_POINT('Origin',(1.56803489072335,0.591544364556512,1.015));
#1071=CARTESIAN_POINT('',(1.56803489072335,0.680845197725545,-1.015));
#1072=CARTESIAN_POINT('',(1.56803489072335,0.591544364556512,-1.015));
#1073=CARTESIAN_POINT('',(1.56803489072335,0.61386957284877,-1.015));
#1074=CARTESIAN_POINT('',(1.56803489072335,0.591544364556512,1.015));
#1075=CARTESIAN_POINT('',(1.56803489072335,0.591544364556512,1.015));
#1076=CARTESIAN_POINT('',(1.56803489072335,0.680845197725545,1.015));
#1077=CARTESIAN_POINT('',(1.56803489072335,0.680845197725545,1.015));
#1078=CARTESIAN_POINT('',(1.56803489072335,0.680845197725545,1.015));
#1079=CARTESIAN_POINT('Origin',(2.17465057400775,0.154447591234477,-1.015));
#1080=CARTESIAN_POINT('',(1.56,-0.282649496934026,-1.015));
#1081=CARTESIAN_POINT('',(2.6,-0.282649496934026,-1.015));
#1082=CARTESIAN_POINT('',(2.6,-0.282649496934026,-1.015));
#1083=CARTESIAN_POINT('',(2.7,-0.182649496934026,-1.015));
#1084=CARTESIAN_POINT('Origin',(2.6,-0.182649496934026,-1.015));
#1085=CARTESIAN_POINT('',(2.7,0.491544364556512,-1.015));
#1086=CARTESIAN_POINT('',(2.7,0.491544364556512,-1.015));
#1087=CARTESIAN_POINT('',(2.6,0.591544364556512,-1.015));
#1088=CARTESIAN_POINT('Origin',(2.6,0.491544364556512,-1.015));
#1089=CARTESIAN_POINT('',(2.15749999999999,0.591544364556512,-1.015));
#1090=CARTESIAN_POINT('',(2.6,0.680845512572013,-1.015));
#1091=CARTESIAN_POINT('',(1.71540116804251,0.680845197725545,-1.015));
#1092=CARTESIAN_POINT('',(2.78930083316903,0.491199108859488,-1.015));
#1093=CARTESIAN_POINT('Origin',(2.6,0.491544364556512,-1.015));
#1094=CARTESIAN_POINT('',(2.78930083316903,-0.182649496934026,-1.015));
#1095=CARTESIAN_POINT('',(2.78930083316903,0.491199108859488,-1.015));
#1096=CARTESIAN_POINT('',(2.6,-0.371950330103059,-1.015));
#1097=CARTESIAN_POINT('Origin',(2.6,-0.182649496934026,-1.015));
#1098=CARTESIAN_POINT('',(1.56,-0.371950330103059,-1.015));
#1099=CARTESIAN_POINT('',(2.6,-0.371950330103059,-1.015));
#1100=CARTESIAN_POINT('',(1.56,-0.282649496934026,-1.015));
#1101=CARTESIAN_POINT('Origin',(2.6,-0.182649496934026,0.));
#1102=CARTESIAN_POINT('',(2.6,-0.282649496934026,1.015));
#1103=CARTESIAN_POINT('',(2.6,-0.282649496934026,0.));
#1104=CARTESIAN_POINT('',(2.7,-0.182649496934026,1.015));
#1105=CARTESIAN_POINT('Origin',(2.6,-0.182649496934026,1.015));
#1106=CARTESIAN_POINT('',(2.7,-0.182649496934026,0.));
#1107=CARTESIAN_POINT('Origin',(2.7,0.491544364556512,0.));
#1108=CARTESIAN_POINT('',(2.7,0.491544364556512,1.015));
#1109=CARTESIAN_POINT('',(2.7,0.491544364556512,1.015));
#1110=CARTESIAN_POINT('',(2.7,0.491544364556512,0.));
#1111=CARTESIAN_POINT('Origin',(2.6,0.491544364556512,0.));
#1112=CARTESIAN_POINT('',(2.6,0.591544364556512,1.015));
#1113=CARTESIAN_POINT('Origin',(2.6,0.491544364556512,1.015));
#1114=CARTESIAN_POINT('',(2.6,0.591544364556512,0.));
#1115=CARTESIAN_POINT('Origin',(2.15749999999999,0.591544364556512,0.));
#1116=CARTESIAN_POINT('',(1.56803489072335,0.591544364556512,1.015));
#1117=CARTESIAN_POINT('Origin',(2.6,0.680845197725545,0.));
#1118=CARTESIAN_POINT('',(2.6,0.680845512572013,1.015));
#1119=CARTESIAN_POINT('',(2.15749999999999,0.680845197725545,1.015));
#1120=CARTESIAN_POINT('',(2.6,0.680845512572013,0.));
#1121=CARTESIAN_POINT('Origin',(2.6,0.491544364556512,0.));
#1122=CARTESIAN_POINT('',(2.78930083316903,0.491199108859488,1.015));
#1123=CARTESIAN_POINT('Origin',(2.6,0.491544364556512,1.015));
#1124=CARTESIAN_POINT('',(2.78930083316903,0.491199108859488,0.));
#1125=CARTESIAN_POINT('Origin',(2.78930083316903,-0.182649496934026,0.));
#1126=CARTESIAN_POINT('',(2.78930083316903,-0.182649496934026,1.015));
#1127=CARTESIAN_POINT('',(2.78930083316903,0.491199108859488,1.015));
#1128=CARTESIAN_POINT('',(2.78930083316903,-0.182649496934026,0.));
#1129=CARTESIAN_POINT('Origin',(2.6,-0.182649496934026,0.));
#1130=CARTESIAN_POINT('',(2.6,-0.371950330103059,1.015));
#1131=CARTESIAN_POINT('Origin',(2.6,-0.182649496934026,1.015));
#1132=CARTESIAN_POINT('',(2.6,-0.371950330103059,0.));
#1133=CARTESIAN_POINT('Origin',(1.56,-0.371950330103059,0.));
#1134=CARTESIAN_POINT('',(1.56,-0.371950330103059,1.015));
#1135=CARTESIAN_POINT('',(2.6,-0.371950330103059,1.015));
#1136=CARTESIAN_POINT('',(1.56,-0.371950330103059,0.));
#1137=CARTESIAN_POINT('Origin',(1.56,-0.282649496934026,0.));
#1138=CARTESIAN_POINT('',(1.56,-0.282649496934026,1.015));
#1139=CARTESIAN_POINT('',(1.56,-0.282649496934026,1.015));
#1140=CARTESIAN_POINT('',(1.56,-0.282649496934026,0.));
#1141=CARTESIAN_POINT('Origin',(2.6,-0.282649496934026,0.));
#1142=CARTESIAN_POINT('',(2.6,-0.282649496934026,1.015));
#1143=CARTESIAN_POINT('Origin',(2.17465057400775,0.154447591234477,1.015));
#1144=CARTESIAN_POINT('Origin',(-1.56803489072335,0.591544364556512,1.015));
#1145=CARTESIAN_POINT('',(-1.56803489072335,0.680845197725545,-1.015));
#1146=CARTESIAN_POINT('',(-1.56803489072335,0.591544364556512,-1.015));
#1147=CARTESIAN_POINT('',(-1.56803489072335,0.61386957284877,-1.015));
#1148=CARTESIAN_POINT('',(-1.56803489072335,0.680845197725545,1.015));
#1149=CARTESIAN_POINT('',(-1.56803489072335,0.680845197725545,1.015));
#1150=CARTESIAN_POINT('',(-1.56803489072335,0.591544364556512,1.015));
#1151=CARTESIAN_POINT('',(-1.56803489072335,0.680845197725545,1.015));
#1152=CARTESIAN_POINT('',(-1.56803489072335,0.591544364556512,1.015));
#1153=CARTESIAN_POINT('Origin',(-2.17465057400775,0.154447591234477,-1.015));
#1154=CARTESIAN_POINT('',(-1.56,-0.282649496934026,-1.015));
#1155=CARTESIAN_POINT('',(-2.6,-0.282649496934026,-1.015));
#1156=CARTESIAN_POINT('',(-2.6,-0.282649496934026,-1.015));
#1157=CARTESIAN_POINT('',(-1.56,-0.371950330103059,-1.015));
#1158=CARTESIAN_POINT('',(-1.56,-0.282649496934026,-1.015));
#1159=CARTESIAN_POINT('',(-2.6,-0.371950330103059,-1.015));
#1160=CARTESIAN_POINT('',(-2.6,-0.371950330103059,-1.015));
#1161=CARTESIAN_POINT('',(-2.78930083316903,-0.182649496934026,-1.015));
#1162=CARTESIAN_POINT('Origin',(-2.6,-0.182649496934026,-1.015));
#1163=CARTESIAN_POINT('',(-2.78930083316903,0.491199108859488,-1.015));
#1164=CARTESIAN_POINT('',(-2.78930083316903,0.491199108859488,-1.015));
#1165=CARTESIAN_POINT('',(-2.6,0.680845512572013,-1.015));
#1166=CARTESIAN_POINT('Origin',(-2.6,0.491544364556512,-1.015));
#1167=CARTESIAN_POINT('',(-1.71540116804251,0.680845197725545,-1.015));
#1168=CARTESIAN_POINT('',(-2.6,0.591544364556512,-1.015));
#1169=CARTESIAN_POINT('',(-2.15749999999999,0.591544364556512,-1.015));
#1170=CARTESIAN_POINT('',(-2.7,0.491544364556512,-1.015));
#1171=CARTESIAN_POINT('Origin',(-2.6,0.491544364556512,-1.015));
#1172=CARTESIAN_POINT('',(-2.7,-0.182649496934026,-1.015));
#1173=CARTESIAN_POINT('',(-2.7,0.491544364556512,-1.015));
#1174=CARTESIAN_POINT('Origin',(-2.6,-0.182649496934026,-1.015));
#1175=CARTESIAN_POINT('Origin',(-2.6,-0.182649496934026,0.));
#1176=CARTESIAN_POINT('',(-2.6,-0.282649496934026,1.015));
#1177=CARTESIAN_POINT('',(-2.6,-0.282649496934026,0.));
#1178=CARTESIAN_POINT('',(-2.7,-0.182649496934026,1.015));
#1179=CARTESIAN_POINT('',(-2.7,-0.182649496934026,0.));
#1180=CARTESIAN_POINT('Origin',(-2.6,-0.182649496934026,1.015));
#1181=CARTESIAN_POINT('Origin',(-2.7,0.491544364556512,0.));
#1182=CARTESIAN_POINT('',(-2.7,0.491544364556512,1.015));
#1183=CARTESIAN_POINT('',(-2.7,0.491544364556512,0.));
#1184=CARTESIAN_POINT('',(-2.7,0.491544364556512,1.015));
#1185=CARTESIAN_POINT('Origin',(-2.6,0.491544364556512,0.));
#1186=CARTESIAN_POINT('',(-2.6,0.591544364556512,1.015));
#1187=CARTESIAN_POINT('',(-2.6,0.591544364556512,0.));
#1188=CARTESIAN_POINT('Origin',(-2.6,0.491544364556512,1.015));
#1189=CARTESIAN_POINT('Origin',(-2.15749999999999,0.591544364556512,0.));
#1190=CARTESIAN_POINT('',(-1.56803489072335,0.591544364556512,1.015));
#1191=CARTESIAN_POINT('Origin',(-2.6,0.680845197725545,0.));
#1192=CARTESIAN_POINT('',(-2.6,0.680845512572013,1.015));
#1193=CARTESIAN_POINT('',(-2.15749999999999,0.680845197725545,1.015));
#1194=CARTESIAN_POINT('',(-2.6,0.680845512572013,0.));
#1195=CARTESIAN_POINT('Origin',(-2.6,0.491544364556512,0.));
#1196=CARTESIAN_POINT('',(-2.78930083316903,0.491199108859488,1.015));
#1197=CARTESIAN_POINT('',(-2.78930083316903,0.491199108859488,0.));
#1198=CARTESIAN_POINT('Origin',(-2.6,0.491544364556512,1.015));
#1199=CARTESIAN_POINT('Origin',(-2.78930083316903,-0.182649496934026,0.));
#1200=CARTESIAN_POINT('',(-2.78930083316903,-0.182649496934026,1.015));
#1201=CARTESIAN_POINT('',(-2.78930083316903,-0.182649496934026,0.));
#1202=CARTESIAN_POINT('',(-2.78930083316903,0.491199108859488,1.015));
#1203=CARTESIAN_POINT('Origin',(-2.6,-0.182649496934026,0.));
#1204=CARTESIAN_POINT('',(-2.6,-0.371950330103059,1.015));
#1205=CARTESIAN_POINT('',(-2.6,-0.371950330103059,0.));
#1206=CARTESIAN_POINT('Origin',(-2.6,-0.182649496934026,1.015));
#1207=CARTESIAN_POINT('Origin',(-1.56,-0.371950330103059,0.));
#1208=CARTESIAN_POINT('',(-1.56,-0.371950330103059,1.015));
#1209=CARTESIAN_POINT('',(-1.56,-0.371950330103059,0.));
#1210=CARTESIAN_POINT('',(-2.6,-0.371950330103059,1.015));
#1211=CARTESIAN_POINT('Origin',(-1.56,-0.282649496934026,0.));
#1212=CARTESIAN_POINT('',(-1.56,-0.282649496934026,1.015));
#1213=CARTESIAN_POINT('',(-1.56,-0.282649496934026,0.));
#1214=CARTESIAN_POINT('',(-1.56,-0.282649496934026,1.015));
#1215=CARTESIAN_POINT('Origin',(-2.6,-0.282649496934026,0.));
#1216=CARTESIAN_POINT('',(-2.6,-0.282649496934026,1.015));
#1217=CARTESIAN_POINT('Origin',(-2.17465057400775,0.154447591234477,1.015));
#1218=UNCERTAINTY_MEASURE_WITH_UNIT(LENGTH_MEASURE(0.01),#1222,
'DISTANCE_ACCURACY_VALUE',
'Maximum model space distance between geometric entities at asserted c
onnectivities');
#1219=UNCERTAINTY_MEASURE_WITH_UNIT(LENGTH_MEASURE(0.01),#1222,
'DISTANCE_ACCURACY_VALUE',
'Maximum model space distance between geometric entities at asserted c
onnectivities');
#1220=(
GEOMETRIC_REPRESENTATION_CONTEXT(3)
GLOBAL_UNCERTAINTY_ASSIGNED_CONTEXT((#1218))
GLOBAL_UNIT_ASSIGNED_CONTEXT((#1222,#1224,#1225))
REPRESENTATION_CONTEXT('','3D')
);
#1221=(
GEOMETRIC_REPRESENTATION_CONTEXT(3)
GLOBAL_UNCERTAINTY_ASSIGNED_CONTEXT((#1219))
GLOBAL_UNIT_ASSIGNED_CONTEXT((#1222,#1224,#1225))
REPRESENTATION_CONTEXT('','3D')
);
#1222=(
LENGTH_UNIT()
NAMED_UNIT(*)
SI_UNIT(.MILLI.,.METRE.)
);
#1223=(
LENGTH_UNIT()
NAMED_UNIT(*)
SI_UNIT($,.METRE.)
);
#1224=(
NAMED_UNIT(*)
PLANE_ANGLE_UNIT()
SI_UNIT($,.RADIAN.)
);
#1225=(
NAMED_UNIT(*)
SI_UNIT($,.STERADIAN.)
SOLID_ANGLE_UNIT()
);
#1226=SHAPE_DEFINITION_REPRESENTATION(#1227,#1228);
#1227=PRODUCT_DEFINITION_SHAPE('',$,#1230);
#1228=SHAPE_REPRESENTATION('',(#750),#1220);
#1229=PRODUCT_DEFINITION_CONTEXT('part definition',#1234,'design');
#1230=PRODUCT_DEFINITION('LSM115J','LSM115J v1',#1231,#1229);
#1231=PRODUCT_DEFINITION_FORMATION('',$,#1236);
#1232=PRODUCT_RELATED_PRODUCT_CATEGORY('LSM115J v1','LSM115J v1',(#1236));
#1233=APPLICATION_PROTOCOL_DEFINITION('international standard',
'automotive_design',2009,#1234);
#1234=APPLICATION_CONTEXT(
'Core Data for Automotive Mechanical Design Process');
#1235=PRODUCT_CONTEXT('part definition',#1234,'mechanical');
#1236=PRODUCT('LSM115J','LSM115J v1',$,(#1235));
#1237=PRESENTATION_STYLE_ASSIGNMENT((#1240));
#1238=PRESENTATION_STYLE_ASSIGNMENT((#1241));
#1239=PRESENTATION_STYLE_ASSIGNMENT((#1242));
#1240=SURFACE_STYLE_USAGE(.BOTH.,#1243);
#1241=SURFACE_STYLE_USAGE(.BOTH.,#1244);
#1242=SURFACE_STYLE_USAGE(.BOTH.,#1245);
#1243=SURFACE_SIDE_STYLE('',(#1246));
#1244=SURFACE_SIDE_STYLE('',(#1247));
#1245=SURFACE_SIDE_STYLE('',(#1248));
#1246=SURFACE_STYLE_FILL_AREA(#1249);
#1247=SURFACE_STYLE_FILL_AREA(#1250);
#1248=SURFACE_STYLE_FILL_AREA(#1251);
#1249=FILL_AREA_STYLE('ABS (White)',(#1252));
#1250=FILL_AREA_STYLE('Plastic - Matte (Black)',(#1253));
#1251=FILL_AREA_STYLE('Chrome',(#1254));
#1252=FILL_AREA_STYLE_COLOUR('ABS (White)',#1255);
#1253=FILL_AREA_STYLE_COLOUR('Plastic - Matte (Black)',#1256);
#1254=FILL_AREA_STYLE_COLOUR('Chrome',#1257);
#1255=COLOUR_RGB('ABS (White)',0.964705882352941,0.964705882352941,0.952941176470588);
#1256=COLOUR_RGB('Plastic - Matte (Black)',0.0980392156862745,0.0980392156862745,
0.0980392156862745);
#1257=COLOUR_RGB('Chrome',0.768627450980392,0.772549019607843,0.768627450980392);
ENDSEC;
END-ISO-10303-21;
