%TF.GenerationSoftware,KiCad,Pcbnew,9.0.0*%
%TF.CreationDate,2026-09-10T22:03:17+02:00*%
%TF.ProjectId,maglev_coils,6d61676c-6576-45f6-936f-696c732e6b69,rev?*%
%TF.SameCoordinates,Original*%
%TF.FileFunction,Copper,L2,Inr*%
%TF.FilePolarity,Positive*%
%FSLAX46Y46*%
G04 Gerber Fmt 4.6, Leading zero omitted, Abs format (unit mm)*
G04 Created by KiCad (PCBNEW 9.0.0) date 2026-09-10 22:03:17*
%MOMM*%
%LPD*%
G01*
G04 APERTURE LIST*
%TA.AperFunction,EtchedComponent*%
%ADD10C,0.300000*%
%TD*%
%TA.AperFunction,ComponentPad*%
%ADD11C,5.200000*%
%TD*%
G04 APERTURE END LIST*
D10*
%TO.C,L3*%
X154179164Y-86369649D02*
X154921627Y-85627186D01*
X146224213Y-94324600D02*
X145481751Y-95067062D01*
X169452671Y-71096142D02*
G75*
G02*
X146224213Y-94324600I-11614229J-11614229D01*
G01*
X169134473Y-71414340D02*
G75*
G02*
X146542411Y-94006402I-11296031J-11296031D01*
G01*
X168816275Y-71732538D02*
G75*
G02*
X146860609Y-93688204I-10977833J-10977833D01*
G01*
X168498077Y-72050736D02*
G75*
G02*
X147178807Y-93370006I-10659635J-10659635D01*
G01*
X168179879Y-72368934D02*
G75*
G02*
X147497005Y-93051808I-10341437J-10341437D01*
G01*
X167861681Y-72687132D02*
G75*
G02*
X147815203Y-92733610I-10023239J-10023239D01*
G01*
X167543483Y-73005330D02*
G75*
G02*
X148133401Y-92415412I-9705041J-9705041D01*
G01*
X167225284Y-73323529D02*
G75*
G02*
X148451600Y-92097213I-9386842J-9386842D01*
G01*
X166907086Y-73641727D02*
G75*
G02*
X148769798Y-91779015I-9068644J-9068644D01*
G01*
X166588888Y-73959925D02*
G75*
G02*
X149087996Y-91460817I-8750446J-8750446D01*
G01*
X166270690Y-74278123D02*
G75*
G02*
X149406194Y-91142619I-8432248J-8432248D01*
G01*
X165952492Y-74596321D02*
G75*
G02*
X149724392Y-90824421I-8114050J-8114050D01*
G01*
X165634294Y-74914519D02*
G75*
G02*
X150042590Y-90506223I-7795852J-7795852D01*
G01*
X165316096Y-75232717D02*
G75*
G02*
X150360788Y-90188025I-7477654J-7477654D01*
G01*
X164997898Y-75550915D02*
G75*
G02*
X150678986Y-89869827I-7159456J-7159456D01*
G01*
X164679700Y-75869113D02*
G75*
G02*
X150997184Y-89551629I-6841258J-6841258D01*
G01*
X164361502Y-76187311D02*
G75*
G02*
X151315382Y-89233431I-6523060J-6523060D01*
G01*
X164043304Y-76505509D02*
G75*
G02*
X151633580Y-88915233I-6204862J-6204862D01*
G01*
X163725106Y-76823707D02*
G75*
G02*
X151951778Y-88597035I-5886664J-5886664D01*
G01*
X163406908Y-77141905D02*
G75*
G02*
X152269976Y-88278837I-5568466J-5568466D01*
G01*
X163088710Y-77460103D02*
G75*
G02*
X152588174Y-87960639I-5250268J-5250268D01*
G01*
X162770512Y-77778301D02*
G75*
G02*
X152906372Y-87642441I-4932070J-4932070D01*
G01*
X162452314Y-78096499D02*
G75*
G02*
X153224570Y-87324243I-4613872J-4613872D01*
G01*
X162134116Y-78414697D02*
G75*
G02*
X153542768Y-87006045I-4295674J-4295674D01*
G01*
X161815918Y-78732895D02*
G75*
G02*
X153860966Y-86687847I-3977476J-3977476D01*
G01*
X154179164Y-86369649D02*
G75*
G02*
X161815918Y-78732895I3818377J3818377D01*
G01*
X153860966Y-86687847D02*
G75*
G02*
X162134116Y-78414697I4136575J4136575D01*
G01*
X153542768Y-87006045D02*
G75*
G02*
X162452314Y-78096499I4454773J4454773D01*
G01*
X153224570Y-87324243D02*
G75*
G02*
X162770512Y-77778301I4772971J4772971D01*
G01*
X152906372Y-87642441D02*
G75*
G02*
X163088710Y-77460103I5091169J5091169D01*
G01*
X152588174Y-87960639D02*
G75*
G02*
X163406908Y-77141905I5409367J5409367D01*
G01*
X152269976Y-88278837D02*
G75*
G02*
X163725106Y-76823707I5727565J5727565D01*
G01*
X151951778Y-88597035D02*
G75*
G02*
X164043304Y-76505509I6045763J6045763D01*
G01*
X151633580Y-88915233D02*
G75*
G02*
X164361502Y-76187311I6363961J6363961D01*
G01*
X151315382Y-89233431D02*
G75*
G02*
X164679700Y-75869113I6682159J6682159D01*
G01*
X150997184Y-89551629D02*
G75*
G02*
X164997898Y-75550915I7000357J7000357D01*
G01*
X150678986Y-89869827D02*
G75*
G02*
X165316096Y-75232717I7318555J7318555D01*
G01*
X150360788Y-90188025D02*
G75*
G02*
X165634294Y-74914519I7636753J7636753D01*
G01*
X150042590Y-90506223D02*
G75*
G02*
X165952492Y-74596321I7954951J7954951D01*
G01*
X149724392Y-90824421D02*
G75*
G02*
X166270690Y-74278123I8273149J8273149D01*
G01*
X149406194Y-91142619D02*
G75*
G02*
X166588888Y-73959925I8591347J8591347D01*
G01*
X149087996Y-91460817D02*
G75*
G02*
X166907086Y-73641727I8909545J8909545D01*
G01*
X148769798Y-91779015D02*
G75*
G02*
X167225284Y-73323529I9227743J9227743D01*
G01*
X148451599Y-92097214D02*
G75*
G02*
X167543483Y-73005330I9545942J9545942D01*
G01*
X148133401Y-92415412D02*
G75*
G02*
X167861681Y-72687132I9864140J9864140D01*
G01*
X147815203Y-92733610D02*
G75*
G02*
X168179879Y-72368934I10182338J10182338D01*
G01*
X147497005Y-93051808D02*
G75*
G02*
X168498077Y-72050736I10500536J10500536D01*
G01*
X147178807Y-93370006D02*
G75*
G02*
X168816275Y-71732538I10818734J10818734D01*
G01*
X146860609Y-93688204D02*
G75*
G02*
X169134473Y-71414340I11136932J11136932D01*
G01*
X146542411Y-94006402D02*
G75*
G02*
X169452671Y-71096142I11455130J11455130D01*
G01*
%TO.C,L2*%
X126460578Y-86369649D02*
X125718115Y-85627186D01*
X134415529Y-94324600D02*
X135157991Y-95067062D01*
X111187071Y-71096142D02*
G75*
G02*
X134415529Y-94324600I11614229J-11614229D01*
G01*
X111505269Y-71414340D02*
G75*
G02*
X134097331Y-94006402I11296031J-11296031D01*
G01*
X111823467Y-71732538D02*
G75*
G02*
X133779133Y-93688204I10977833J-10977833D01*
G01*
X112141665Y-72050736D02*
G75*
G02*
X133460935Y-93370006I10659635J-10659635D01*
G01*
X112459863Y-72368934D02*
G75*
G02*
X133142737Y-93051808I10341437J-10341437D01*
G01*
X112778061Y-72687132D02*
G75*
G02*
X132824539Y-92733610I10023239J-10023239D01*
G01*
X113096259Y-73005330D02*
G75*
G02*
X132506341Y-92415412I9705041J-9705041D01*
G01*
X113414458Y-73323529D02*
G75*
G02*
X132188142Y-92097213I9386842J-9386842D01*
G01*
X113732656Y-73641727D02*
G75*
G02*
X131869944Y-91779015I9068644J-9068644D01*
G01*
X114050854Y-73959925D02*
G75*
G02*
X131551746Y-91460817I8750446J-8750446D01*
G01*
X114369052Y-74278123D02*
G75*
G02*
X131233548Y-91142619I8432248J-8432248D01*
G01*
X114687250Y-74596321D02*
G75*
G02*
X130915350Y-90824421I8114050J-8114050D01*
G01*
X115005448Y-74914519D02*
G75*
G02*
X130597152Y-90506223I7795852J-7795852D01*
G01*
X115323646Y-75232717D02*
G75*
G02*
X130278954Y-90188025I7477654J-7477654D01*
G01*
X115641844Y-75550915D02*
G75*
G02*
X129960756Y-89869827I7159456J-7159456D01*
G01*
X115960042Y-75869113D02*
G75*
G02*
X129642558Y-89551629I6841258J-6841258D01*
G01*
X116278240Y-76187311D02*
G75*
G02*
X129324360Y-89233431I6523060J-6523060D01*
G01*
X116596438Y-76505509D02*
G75*
G02*
X129006162Y-88915233I6204862J-6204862D01*
G01*
X116914636Y-76823707D02*
G75*
G02*
X128687964Y-88597035I5886664J-5886664D01*
G01*
X117232834Y-77141905D02*
G75*
G02*
X128369766Y-88278837I5568466J-5568466D01*
G01*
X117551032Y-77460103D02*
G75*
G02*
X128051568Y-87960639I5250268J-5250268D01*
G01*
X117869230Y-77778301D02*
G75*
G02*
X127733370Y-87642441I4932070J-4932070D01*
G01*
X118187428Y-78096499D02*
G75*
G02*
X127415172Y-87324243I4613872J-4613872D01*
G01*
X118505626Y-78414697D02*
G75*
G02*
X127096974Y-87006045I4295674J-4295674D01*
G01*
X118823824Y-78732895D02*
G75*
G02*
X126778776Y-86687847I3977476J-3977476D01*
G01*
X126460578Y-86369649D02*
G75*
G02*
X118823824Y-78732895I-3818377J3818377D01*
G01*
X126778776Y-86687847D02*
G75*
G02*
X118505626Y-78414697I-4136575J4136575D01*
G01*
X127096974Y-87006045D02*
G75*
G02*
X118187428Y-78096499I-4454773J4454773D01*
G01*
X127415172Y-87324243D02*
G75*
G02*
X117869230Y-77778301I-4772971J4772971D01*
G01*
X127733370Y-87642441D02*
G75*
G02*
X117551032Y-77460103I-5091169J5091169D01*
G01*
X128051568Y-87960639D02*
G75*
G02*
X117232834Y-77141905I-5409367J5409367D01*
G01*
X128369766Y-88278837D02*
G75*
G02*
X116914636Y-76823707I-5727565J5727565D01*
G01*
X128687964Y-88597035D02*
G75*
G02*
X116596438Y-76505509I-6045763J6045763D01*
G01*
X129006162Y-88915233D02*
G75*
G02*
X116278240Y-76187311I-6363961J6363961D01*
G01*
X129324360Y-89233431D02*
G75*
G02*
X115960042Y-75869113I-6682159J6682159D01*
G01*
X129642558Y-89551629D02*
G75*
G02*
X115641844Y-75550915I-7000357J7000357D01*
G01*
X129960756Y-89869827D02*
G75*
G02*
X115323646Y-75232717I-7318555J7318555D01*
G01*
X130278954Y-90188025D02*
G75*
G02*
X115005448Y-74914519I-7636753J7636753D01*
G01*
X130597152Y-90506223D02*
G75*
G02*
X114687250Y-74596321I-7954951J7954951D01*
G01*
X130915350Y-90824421D02*
G75*
G02*
X114369052Y-74278123I-8273149J8273149D01*
G01*
X131233548Y-91142619D02*
G75*
G02*
X114050854Y-73959925I-8591347J8591347D01*
G01*
X131551746Y-91460817D02*
G75*
G02*
X113732656Y-73641727I-8909545J8909545D01*
G01*
X131869944Y-91779015D02*
G75*
G02*
X113414458Y-73323529I-9227743J9227743D01*
G01*
X132188143Y-92097214D02*
G75*
G02*
X113096259Y-73005330I-9545942J9545942D01*
G01*
X132506341Y-92415412D02*
G75*
G02*
X112778061Y-72687132I-9864140J9864140D01*
G01*
X132824539Y-92733610D02*
G75*
G02*
X112459863Y-72368934I-10182338J10182338D01*
G01*
X133142737Y-93051808D02*
G75*
G02*
X112141665Y-72050736I-10500536J10500536D01*
G01*
X133460935Y-93370006D02*
G75*
G02*
X111823467Y-71732538I-10818734J10818734D01*
G01*
X133779133Y-93688204D02*
G75*
G02*
X111505269Y-71414340I-11136932J11136932D01*
G01*
X134097331Y-94006402D02*
G75*
G02*
X111187071Y-71096142I-11455130J11455130D01*
G01*
%TO.C,L4*%
X154179164Y-114088234D02*
X154921627Y-114830697D01*
X146224213Y-106133283D02*
X145481751Y-105390821D01*
X169452671Y-129361741D02*
G75*
G02*
X146224213Y-106133283I-11614229J11614229D01*
G01*
X169134473Y-129043543D02*
G75*
G02*
X146542411Y-106451481I-11296031J11296031D01*
G01*
X168816275Y-128725345D02*
G75*
G02*
X146860609Y-106769679I-10977833J10977833D01*
G01*
X168498077Y-128407147D02*
G75*
G02*
X147178807Y-107087877I-10659635J10659635D01*
G01*
X168179879Y-128088949D02*
G75*
G02*
X147497005Y-107406075I-10341437J10341437D01*
G01*
X167861681Y-127770751D02*
G75*
G02*
X147815203Y-107724273I-10023239J10023239D01*
G01*
X167543483Y-127452553D02*
G75*
G02*
X148133401Y-108042471I-9705041J9705041D01*
G01*
X167225284Y-127134354D02*
G75*
G02*
X148451600Y-108360670I-9386842J9386842D01*
G01*
X166907086Y-126816156D02*
G75*
G02*
X148769798Y-108678868I-9068644J9068644D01*
G01*
X166588888Y-126497958D02*
G75*
G02*
X149087996Y-108997066I-8750446J8750446D01*
G01*
X166270690Y-126179760D02*
G75*
G02*
X149406194Y-109315264I-8432248J8432248D01*
G01*
X165952492Y-125861562D02*
G75*
G02*
X149724392Y-109633462I-8114050J8114050D01*
G01*
X165634294Y-125543364D02*
G75*
G02*
X150042590Y-109951660I-7795852J7795852D01*
G01*
X165316096Y-125225166D02*
G75*
G02*
X150360788Y-110269858I-7477654J7477654D01*
G01*
X164997898Y-124906968D02*
G75*
G02*
X150678986Y-110588056I-7159456J7159456D01*
G01*
X164679700Y-124588770D02*
G75*
G02*
X150997184Y-110906254I-6841258J6841258D01*
G01*
X164361502Y-124270572D02*
G75*
G02*
X151315382Y-111224452I-6523060J6523060D01*
G01*
X164043304Y-123952374D02*
G75*
G02*
X151633580Y-111542650I-6204862J6204862D01*
G01*
X163725106Y-123634176D02*
G75*
G02*
X151951778Y-111860848I-5886664J5886664D01*
G01*
X163406908Y-123315978D02*
G75*
G02*
X152269976Y-112179046I-5568466J5568466D01*
G01*
X163088710Y-122997780D02*
G75*
G02*
X152588174Y-112497244I-5250268J5250268D01*
G01*
X162770512Y-122679582D02*
G75*
G02*
X152906372Y-112815442I-4932070J4932070D01*
G01*
X162452314Y-122361384D02*
G75*
G02*
X153224570Y-113133640I-4613872J4613872D01*
G01*
X162134116Y-122043186D02*
G75*
G02*
X153542768Y-113451838I-4295674J4295674D01*
G01*
X161815918Y-121724988D02*
G75*
G02*
X153860966Y-113770036I-3977476J3977476D01*
G01*
X154179164Y-114088234D02*
G75*
G02*
X161815918Y-121724988I3818377J-3818377D01*
G01*
X153860966Y-113770036D02*
G75*
G02*
X162134116Y-122043186I4136575J-4136575D01*
G01*
X153542768Y-113451838D02*
G75*
G02*
X162452314Y-122361384I4454773J-4454773D01*
G01*
X153224570Y-113133640D02*
G75*
G02*
X162770512Y-122679582I4772971J-4772971D01*
G01*
X152906372Y-112815442D02*
G75*
G02*
X163088710Y-122997780I5091169J-5091169D01*
G01*
X152588174Y-112497244D02*
G75*
G02*
X163406908Y-123315978I5409367J-5409367D01*
G01*
X152269976Y-112179046D02*
G75*
G02*
X163725106Y-123634176I5727565J-5727565D01*
G01*
X151951778Y-111860848D02*
G75*
G02*
X164043304Y-123952374I6045763J-6045763D01*
G01*
X151633580Y-111542650D02*
G75*
G02*
X164361502Y-124270572I6363961J-6363961D01*
G01*
X151315382Y-111224452D02*
G75*
G02*
X164679700Y-124588770I6682159J-6682159D01*
G01*
X150997184Y-110906254D02*
G75*
G02*
X164997898Y-124906968I7000357J-7000357D01*
G01*
X150678986Y-110588056D02*
G75*
G02*
X165316096Y-125225166I7318555J-7318555D01*
G01*
X150360788Y-110269858D02*
G75*
G02*
X165634294Y-125543364I7636753J-7636753D01*
G01*
X150042590Y-109951660D02*
G75*
G02*
X165952492Y-125861562I7954951J-7954951D01*
G01*
X149724392Y-109633462D02*
G75*
G02*
X166270690Y-126179760I8273149J-8273149D01*
G01*
X149406194Y-109315264D02*
G75*
G02*
X166588888Y-126497958I8591347J-8591347D01*
G01*
X149087996Y-108997066D02*
G75*
G02*
X166907086Y-126816156I8909545J-8909545D01*
G01*
X148769798Y-108678868D02*
G75*
G02*
X167225284Y-127134354I9227743J-9227743D01*
G01*
X148451599Y-108360669D02*
G75*
G02*
X167543483Y-127452553I9545942J-9545942D01*
G01*
X148133401Y-108042471D02*
G75*
G02*
X167861681Y-127770751I9864140J-9864140D01*
G01*
X147815203Y-107724273D02*
G75*
G02*
X168179879Y-128088949I10182338J-10182338D01*
G01*
X147497005Y-107406075D02*
G75*
G02*
X168498077Y-128407147I10500536J-10500536D01*
G01*
X147178807Y-107087877D02*
G75*
G02*
X168816275Y-128725345I10818734J-10818734D01*
G01*
X146860609Y-106769679D02*
G75*
G02*
X169134473Y-129043543I11136932J-11136932D01*
G01*
X146542411Y-106451481D02*
G75*
G02*
X169452671Y-129361741I11455130J-11455130D01*
G01*
%TO.C,L1*%
X126460578Y-114088234D02*
X125718115Y-114830697D01*
X134415529Y-106133283D02*
X135157991Y-105390821D01*
X111187071Y-129361741D02*
G75*
G02*
X134415529Y-106133283I11614229J11614229D01*
G01*
X111505269Y-129043543D02*
G75*
G02*
X134097331Y-106451481I11296031J11296031D01*
G01*
X111823467Y-128725345D02*
G75*
G02*
X133779133Y-106769679I10977833J10977833D01*
G01*
X112141665Y-128407147D02*
G75*
G02*
X133460935Y-107087877I10659635J10659635D01*
G01*
X112459863Y-128088949D02*
G75*
G02*
X133142737Y-107406075I10341437J10341437D01*
G01*
X112778061Y-127770751D02*
G75*
G02*
X132824539Y-107724273I10023239J10023239D01*
G01*
X113096259Y-127452553D02*
G75*
G02*
X132506341Y-108042471I9705041J9705041D01*
G01*
X113414458Y-127134354D02*
G75*
G02*
X132188142Y-108360670I9386842J9386842D01*
G01*
X113732656Y-126816156D02*
G75*
G02*
X131869944Y-108678868I9068644J9068644D01*
G01*
X114050854Y-126497958D02*
G75*
G02*
X131551746Y-108997066I8750446J8750446D01*
G01*
X114369052Y-126179760D02*
G75*
G02*
X131233548Y-109315264I8432248J8432248D01*
G01*
X114687250Y-125861562D02*
G75*
G02*
X130915350Y-109633462I8114050J8114050D01*
G01*
X115005448Y-125543364D02*
G75*
G02*
X130597152Y-109951660I7795852J7795852D01*
G01*
X115323646Y-125225166D02*
G75*
G02*
X130278954Y-110269858I7477654J7477654D01*
G01*
X115641844Y-124906968D02*
G75*
G02*
X129960756Y-110588056I7159456J7159456D01*
G01*
X115960042Y-124588770D02*
G75*
G02*
X129642558Y-110906254I6841258J6841258D01*
G01*
X116278240Y-124270572D02*
G75*
G02*
X129324360Y-111224452I6523060J6523060D01*
G01*
X116596438Y-123952374D02*
G75*
G02*
X129006162Y-111542650I6204862J6204862D01*
G01*
X116914636Y-123634176D02*
G75*
G02*
X128687964Y-111860848I5886664J5886664D01*
G01*
X117232834Y-123315978D02*
G75*
G02*
X128369766Y-112179046I5568466J5568466D01*
G01*
X117551032Y-122997780D02*
G75*
G02*
X128051568Y-112497244I5250268J5250268D01*
G01*
X117869230Y-122679582D02*
G75*
G02*
X127733370Y-112815442I4932070J4932070D01*
G01*
X118187428Y-122361384D02*
G75*
G02*
X127415172Y-113133640I4613872J4613872D01*
G01*
X118505626Y-122043186D02*
G75*
G02*
X127096974Y-113451838I4295674J4295674D01*
G01*
X118823824Y-121724988D02*
G75*
G02*
X126778776Y-113770036I3977476J3977476D01*
G01*
X126460578Y-114088234D02*
G75*
G02*
X118823824Y-121724988I-3818377J-3818377D01*
G01*
X126778776Y-113770036D02*
G75*
G02*
X118505626Y-122043186I-4136575J-4136575D01*
G01*
X127096974Y-113451838D02*
G75*
G02*
X118187428Y-122361384I-4454773J-4454773D01*
G01*
X127415172Y-113133640D02*
G75*
G02*
X117869230Y-122679582I-4772971J-4772971D01*
G01*
X127733370Y-112815442D02*
G75*
G02*
X117551032Y-122997780I-5091169J-5091169D01*
G01*
X128051568Y-112497244D02*
G75*
G02*
X117232834Y-123315978I-5409367J-5409367D01*
G01*
X128369766Y-112179046D02*
G75*
G02*
X116914636Y-123634176I-5727565J-5727565D01*
G01*
X128687964Y-111860848D02*
G75*
G02*
X116596438Y-123952374I-6045763J-6045763D01*
G01*
X129006162Y-111542650D02*
G75*
G02*
X116278240Y-124270572I-6363961J-6363961D01*
G01*
X129324360Y-111224452D02*
G75*
G02*
X115960042Y-124588770I-6682159J-6682159D01*
G01*
X129642558Y-110906254D02*
G75*
G02*
X115641844Y-124906968I-7000357J-7000357D01*
G01*
X129960756Y-110588056D02*
G75*
G02*
X115323646Y-125225166I-7318555J-7318555D01*
G01*
X130278954Y-110269858D02*
G75*
G02*
X115005448Y-125543364I-7636753J-7636753D01*
G01*
X130597152Y-109951660D02*
G75*
G02*
X114687250Y-125861562I-7954951J-7954951D01*
G01*
X130915350Y-109633462D02*
G75*
G02*
X114369052Y-126179760I-8273149J-8273149D01*
G01*
X131233548Y-109315264D02*
G75*
G02*
X114050854Y-126497958I-8591347J-8591347D01*
G01*
X131551746Y-108997066D02*
G75*
G02*
X113732656Y-126816156I-8909545J-8909545D01*
G01*
X131869944Y-108678868D02*
G75*
G02*
X113414458Y-127134354I-9227743J-9227743D01*
G01*
X132188143Y-108360669D02*
G75*
G02*
X113096259Y-127452553I-9545942J-9545942D01*
G01*
X132506341Y-108042471D02*
G75*
G02*
X112778061Y-127770751I-9864140J-9864140D01*
G01*
X132824539Y-107724273D02*
G75*
G02*
X112459863Y-128088949I-10182338J-10182338D01*
G01*
X133142737Y-107406075D02*
G75*
G02*
X112141665Y-128407147I-10500536J-10500536D01*
G01*
X133460935Y-107087877D02*
G75*
G02*
X111823467Y-128725345I-10818734J-10818734D01*
G01*
X133779133Y-106769679D02*
G75*
G02*
X111505269Y-129043543I-11136932J-11136932D01*
G01*
X134097331Y-106451481D02*
G75*
G02*
X111187071Y-129361741I-11455130J-11455130D01*
G01*
%TD*%
D11*
%TO.N,unconnected-(L3-Pad1)*%
%TO.C,L3*%
X147747541Y-100304792D03*
%TO.N,unconnected-(L3-Pad2)*%
X168247541Y-100304794D03*
%TD*%
%TO.N,unconnected-(L2-Pad1)*%
%TO.C,L2*%
X140395721Y-92801272D03*
%TO.N,unconnected-(L2-Pad2)*%
X140395723Y-72301272D03*
%TD*%
%TO.N,unconnected-(L4-Pad1)*%
%TO.C,L4*%
X140244021Y-107656611D03*
%TO.N,unconnected-(L4-Pad2)*%
X140244019Y-128156611D03*
%TD*%
%TO.N,unconnected-(L1-Pad1)*%
%TO.C,L1*%
X132892201Y-100153091D03*
%TO.N,unconnected-(L1-Pad2)*%
X112392201Y-100153089D03*
%TD*%
M02*
