M48
; DRILL file {KiCad 9.0.0} date 2026-09-10T22:02:50+0200
; FORMAT={-:-/ absolute / metric / decimal}
; #@! TF.CreationDate,2026-09-10T22:02:50+02:00
; #@! TF.GenerationSoftware,Kicad,Pcbnew,9.0.0
; #@! TF.FileFunction,Plated,1,4,PTH
FMAT,2
METRIC
; #@! TA.AperFunction,Plated,PTH,ComponentDrill
T1C0.300
; #@! TA.AperFunction,Plated,PTH,ComponentDrill
T2C2.200
%
G90
G05
T1
X119.566Y-79.475
X119.566Y-120.983
X125.718Y-85.627
X125.718Y-114.831
X135.158Y-95.067
X135.158Y-105.391
X145.482Y-95.067
X145.482Y-105.391
X154.922Y-85.627
X154.922Y-114.831
X161.073Y-79.475
X161.073Y-120.983
T2
X112.392Y-100.153
X132.892Y-100.153
X140.244Y-128.157
X140.244Y-107.657
X140.396Y-92.801
X140.396Y-72.301
X147.748Y-100.305
X168.248Y-100.305
M30
