%TF.GenerationSoftware,KiCad,Pcbnew,9.0.0*%
%TF.CreationDate,2026-09-10T22:03:17+02:00*%
%TF.ProjectId,maglev_coils,6d61676c-6576-45f6-936f-696c732e6b69,rev?*%
%TF.SameCoordinates,Original*%
%TF.FileFunction,Legend,Top*%
%TF.FilePolarity,Positive*%
%FSLAX46Y46*%
G04 Gerber Fmt 4.6, Leading zero omitted, Abs format (unit mm)*
G04 Created by KiCad (PCBNEW 9.0.0) date 2026-09-10 22:03:17*
%MOMM*%
%LPD*%
G01*
G04 APERTURE LIST*
%ADD10C,0.100000*%
G04 APERTURE END LIST*
D10*
X143119757Y-105199453D02*
X143065882Y-105199453D01*
X143065882Y-105199453D02*
X142985070Y-105172516D01*
X142985070Y-105172516D02*
X142931195Y-105010891D01*
X142931195Y-105010891D02*
X142850383Y-104983954D01*
X142850383Y-104983954D02*
X142796508Y-104983954D01*
X142554071Y-104202769D02*
X142877320Y-104526018D01*
X142715695Y-104364393D02*
X142150010Y-104930079D01*
X142150010Y-104930079D02*
X142284697Y-104903141D01*
X142284697Y-104903141D02*
X142392446Y-104903141D01*
X142392446Y-104903141D02*
X142473259Y-104930079D01*
X141638199Y-104418268D02*
X141584324Y-104364393D01*
X141584324Y-104364393D02*
X141557387Y-104283581D01*
X141557387Y-104283581D02*
X141557387Y-104229706D01*
X141557387Y-104229706D02*
X141584324Y-104148894D01*
X141584324Y-104148894D02*
X141665136Y-104014207D01*
X141665136Y-104014207D02*
X141799823Y-103879520D01*
X141799823Y-103879520D02*
X141934510Y-103798708D01*
X141934510Y-103798708D02*
X142015323Y-103771770D01*
X142015323Y-103771770D02*
X142069197Y-103771770D01*
X142069197Y-103771770D02*
X142150010Y-103798708D01*
X142150010Y-103798708D02*
X142203884Y-103852583D01*
X142203884Y-103852583D02*
X142230822Y-103933395D01*
X142230822Y-103933395D02*
X142230822Y-103987270D01*
X142230822Y-103987270D02*
X142203884Y-104068082D01*
X142203884Y-104068082D02*
X142123072Y-104202769D01*
X142123072Y-104202769D02*
X141988385Y-104337456D01*
X141988385Y-104337456D02*
X141853698Y-104418268D01*
X141853698Y-104418268D02*
X141772886Y-104445205D01*
X141772886Y-104445205D02*
X141719011Y-104445205D01*
X141719011Y-104445205D02*
X141638199Y-104418268D01*
X141099451Y-103879520D02*
X141045576Y-103825645D01*
X141045576Y-103825645D02*
X141018639Y-103744833D01*
X141018639Y-103744833D02*
X141018639Y-103690958D01*
X141018639Y-103690958D02*
X141045576Y-103610146D01*
X141045576Y-103610146D02*
X141126388Y-103475459D01*
X141126388Y-103475459D02*
X141261075Y-103340772D01*
X141261075Y-103340772D02*
X141395762Y-103259960D01*
X141395762Y-103259960D02*
X141476574Y-103233022D01*
X141476574Y-103233022D02*
X141530449Y-103233022D01*
X141530449Y-103233022D02*
X141611261Y-103259960D01*
X141611261Y-103259960D02*
X141665136Y-103313834D01*
X141665136Y-103313834D02*
X141692074Y-103394647D01*
X141692074Y-103394647D02*
X141692074Y-103448521D01*
X141692074Y-103448521D02*
X141665136Y-103529334D01*
X141665136Y-103529334D02*
X141584324Y-103664021D01*
X141584324Y-103664021D02*
X141449637Y-103798708D01*
X141449637Y-103798708D02*
X141314950Y-103879520D01*
X141314950Y-103879520D02*
X141234138Y-103906457D01*
X141234138Y-103906457D02*
X141180263Y-103906457D01*
X141180263Y-103906457D02*
X141099451Y-103879520D01*
X140506828Y-102909773D02*
X140291328Y-102694274D01*
X140237454Y-103017523D02*
X140722327Y-102532649D01*
X140722327Y-102532649D02*
X140749264Y-102451837D01*
X140749264Y-102451837D02*
X140722327Y-102371025D01*
X140722327Y-102371025D02*
X140668452Y-102317150D01*
X139860330Y-102263275D02*
X140237454Y-101886152D01*
X140102767Y-102505712D02*
X140399078Y-102209401D01*
X140399078Y-102209401D02*
X140426015Y-102128588D01*
X140426015Y-102128588D02*
X140399078Y-102047776D01*
X140399078Y-102047776D02*
X140318266Y-101966964D01*
X140318266Y-101966964D02*
X140237454Y-101940027D01*
X140237454Y-101940027D02*
X140183579Y-101940027D01*
X139968079Y-101616777D02*
X139590956Y-101993901D01*
X139698705Y-101886151D02*
X139617893Y-101913089D01*
X139617893Y-101913089D02*
X139564018Y-101913089D01*
X139564018Y-101913089D02*
X139483206Y-101886151D01*
X139483206Y-101886151D02*
X139429331Y-101832277D01*
X139240769Y-101643715D02*
X139617893Y-101266591D01*
X139294644Y-101589840D02*
X139240769Y-101589840D01*
X139240769Y-101589840D02*
X139159957Y-101562903D01*
X139159957Y-101562903D02*
X139079145Y-101482090D01*
X139079145Y-101482090D02*
X139052208Y-101401278D01*
X139052208Y-101401278D02*
X139079145Y-101320466D01*
X139079145Y-101320466D02*
X139375456Y-101024155D01*
X139106082Y-100808655D02*
X139079145Y-100727843D01*
X139079145Y-100727843D02*
X138971395Y-100620093D01*
X138971395Y-100620093D02*
X138890583Y-100593156D01*
X138890583Y-100593156D02*
X138809771Y-100620093D01*
X138809771Y-100620093D02*
X138782833Y-100647031D01*
X138782833Y-100647031D02*
X138755896Y-100727843D01*
X138755896Y-100727843D02*
X138782833Y-100808655D01*
X138782833Y-100808655D02*
X138863646Y-100889467D01*
X138863646Y-100889467D02*
X138890583Y-100970279D01*
X138890583Y-100970279D02*
X138863646Y-101051092D01*
X138863646Y-101051092D02*
X138836708Y-101078029D01*
X138836708Y-101078029D02*
X138755896Y-101104967D01*
X138755896Y-101104967D02*
X138675084Y-101078029D01*
X138675084Y-101078029D02*
X138594272Y-100997217D01*
X138594272Y-100997217D02*
X138567334Y-100916405D01*
X143491731Y-104450356D02*
X143437856Y-104396481D01*
X143437856Y-104396481D02*
X143410918Y-104315669D01*
X143410918Y-104315669D02*
X143410918Y-104261794D01*
X143410918Y-104261794D02*
X143437856Y-104180982D01*
X143437856Y-104180982D02*
X143518668Y-104046295D01*
X143518668Y-104046295D02*
X143653355Y-103911608D01*
X143653355Y-103911608D02*
X143788042Y-103830795D01*
X143788042Y-103830795D02*
X143868854Y-103803858D01*
X143868854Y-103803858D02*
X143922729Y-103803858D01*
X143922729Y-103803858D02*
X144003541Y-103830795D01*
X144003541Y-103830795D02*
X144057416Y-103884670D01*
X144057416Y-103884670D02*
X144084353Y-103965482D01*
X144084353Y-103965482D02*
X144084353Y-104019357D01*
X144084353Y-104019357D02*
X144057416Y-104100169D01*
X144057416Y-104100169D02*
X143976604Y-104234856D01*
X143976604Y-104234856D02*
X143841917Y-104369543D01*
X143841917Y-104369543D02*
X143707230Y-104450356D01*
X143707230Y-104450356D02*
X143626418Y-104477293D01*
X143626418Y-104477293D02*
X143572543Y-104477293D01*
X143572543Y-104477293D02*
X143491731Y-104450356D01*
X143572543Y-103507546D02*
X143572543Y-103453672D01*
X143572543Y-103453672D02*
X143626417Y-103453672D01*
X143626417Y-103453672D02*
X143626417Y-103507546D01*
X143626417Y-103507546D02*
X143572543Y-103507546D01*
X143572543Y-103507546D02*
X143626417Y-103453672D01*
X142845233Y-103803858D02*
X142495047Y-103453672D01*
X142495047Y-103453672D02*
X142899108Y-103426734D01*
X142899108Y-103426734D02*
X142818296Y-103345922D01*
X142818296Y-103345922D02*
X142791358Y-103265110D01*
X142791358Y-103265110D02*
X142791358Y-103211235D01*
X142791358Y-103211235D02*
X142818296Y-103130423D01*
X142818296Y-103130423D02*
X142952983Y-102995736D01*
X142952983Y-102995736D02*
X143033795Y-102968799D01*
X143033795Y-102968799D02*
X143087670Y-102968799D01*
X143087670Y-102968799D02*
X143168482Y-102995736D01*
X143168482Y-102995736D02*
X143330106Y-103157360D01*
X143330106Y-103157360D02*
X143357044Y-103238173D01*
X143357044Y-103238173D02*
X143357044Y-103292047D01*
X142387297Y-102214551D02*
X142010173Y-102591675D01*
X142064048Y-102537800D02*
X142010173Y-102537800D01*
X142010173Y-102537800D02*
X141929361Y-102510862D01*
X141929361Y-102510862D02*
X141848549Y-102430050D01*
X141848549Y-102430050D02*
X141821611Y-102349238D01*
X141821611Y-102349238D02*
X141848549Y-102268426D01*
X141848549Y-102268426D02*
X142144860Y-101972114D01*
X141848549Y-102268426D02*
X141767737Y-102295363D01*
X141767737Y-102295363D02*
X141686924Y-102268426D01*
X141686924Y-102268426D02*
X141606112Y-102187614D01*
X141606112Y-102187614D02*
X141579175Y-102106801D01*
X141579175Y-102106801D02*
X141606112Y-102025989D01*
X141606112Y-102025989D02*
X141902424Y-101729678D01*
X141633049Y-101460304D02*
X141255926Y-101837427D01*
X141309801Y-101783552D02*
X141255926Y-101783552D01*
X141255926Y-101783552D02*
X141175114Y-101756615D01*
X141175114Y-101756615D02*
X141094301Y-101675803D01*
X141094301Y-101675803D02*
X141067364Y-101594991D01*
X141067364Y-101594991D02*
X141094301Y-101514178D01*
X141094301Y-101514178D02*
X141390613Y-101217867D01*
X141094301Y-101514178D02*
X141013489Y-101541116D01*
X141013489Y-101541116D02*
X140932677Y-101514178D01*
X140932677Y-101514178D02*
X140851865Y-101433366D01*
X140851865Y-101433366D02*
X140824927Y-101352554D01*
X140824927Y-101352554D02*
X140851865Y-101271742D01*
X140851865Y-101271742D02*
X141148176Y-100975430D01*
X140151492Y-100732993D02*
X139935993Y-100517494D01*
X139882118Y-100840743D02*
X140366991Y-100355870D01*
X140366991Y-100355870D02*
X140393929Y-100275058D01*
X140393929Y-100275058D02*
X140366991Y-100194245D01*
X140366991Y-100194245D02*
X140313116Y-100140371D01*
X140124554Y-99951809D02*
X139747431Y-100328932D01*
X139855180Y-100221183D02*
X139774368Y-100248120D01*
X139774368Y-100248120D02*
X139720493Y-100248120D01*
X139720493Y-100248120D02*
X139639681Y-100221183D01*
X139639681Y-100221183D02*
X139585806Y-100167308D01*
X139531932Y-99359186D02*
X139235620Y-99655497D01*
X139235620Y-99655497D02*
X139208683Y-99736309D01*
X139208683Y-99736309D02*
X139235620Y-99817122D01*
X139235620Y-99817122D02*
X139343370Y-99924871D01*
X139343370Y-99924871D02*
X139424182Y-99951809D01*
X139504994Y-99386123D02*
X139585807Y-99413061D01*
X139585807Y-99413061D02*
X139720494Y-99547748D01*
X139720494Y-99547748D02*
X139747431Y-99628560D01*
X139747431Y-99628560D02*
X139720494Y-99709372D01*
X139720494Y-99709372D02*
X139666619Y-99763247D01*
X139666619Y-99763247D02*
X139585807Y-99790184D01*
X139585807Y-99790184D02*
X139504994Y-99763247D01*
X139504994Y-99763247D02*
X139370307Y-99628560D01*
X139370307Y-99628560D02*
X139289495Y-99601622D01*
X138993183Y-98874312D02*
X139073996Y-98901250D01*
X139073996Y-98901250D02*
X139181745Y-99008999D01*
X139181745Y-99008999D02*
X139208683Y-99089812D01*
X139208683Y-99089812D02*
X139208683Y-99143686D01*
X139208683Y-99143686D02*
X139181745Y-99224499D01*
X139181745Y-99224499D02*
X139020121Y-99386123D01*
X139020121Y-99386123D02*
X138939309Y-99413060D01*
X138939309Y-99413060D02*
X138885434Y-99413060D01*
X138885434Y-99413060D02*
X138804622Y-99386123D01*
X138804622Y-99386123D02*
X138696872Y-99278373D01*
X138696872Y-99278373D02*
X138669935Y-99197561D01*
X138535248Y-98416377D02*
X138616060Y-98443314D01*
X138616060Y-98443314D02*
X138723810Y-98551064D01*
X138723810Y-98551064D02*
X138750747Y-98631876D01*
X138750747Y-98631876D02*
X138723810Y-98712688D01*
X138723810Y-98712688D02*
X138508310Y-98928187D01*
X138508310Y-98928187D02*
X138427498Y-98955125D01*
X138427498Y-98955125D02*
X138346686Y-98928187D01*
X138346686Y-98928187D02*
X138238936Y-98820438D01*
X138238936Y-98820438D02*
X138211999Y-98739626D01*
X138211999Y-98739626D02*
X138238936Y-98658813D01*
X138238936Y-98658813D02*
X138292811Y-98604939D01*
X138292811Y-98604939D02*
X138616060Y-98820438D01*
X137538564Y-98120065D02*
X137807938Y-97635192D01*
X137807938Y-97635192D02*
X137430814Y-97796817D01*
X137430814Y-97796817D02*
X137592439Y-97419693D01*
X137592439Y-97419693D02*
X137107566Y-97689067D01*
X137269190Y-97096444D02*
X136892067Y-97473568D01*
X136703505Y-97662130D02*
X136757380Y-97662130D01*
X136757380Y-97662130D02*
X136757380Y-97608255D01*
X136757380Y-97608255D02*
X136703505Y-97608255D01*
X136703505Y-97608255D02*
X136703505Y-97662130D01*
X136703505Y-97662130D02*
X136757380Y-97608255D01*
X136757380Y-96584634D02*
X136191694Y-97150319D01*
X136730442Y-96611571D02*
X136811255Y-96638509D01*
X136811255Y-96638509D02*
X136919004Y-96746258D01*
X136919004Y-96746258D02*
X136945942Y-96827071D01*
X136945942Y-96827071D02*
X136945942Y-96880945D01*
X136945942Y-96880945D02*
X136919004Y-96961758D01*
X136919004Y-96961758D02*
X136757380Y-97123382D01*
X136757380Y-97123382D02*
X136676568Y-97150319D01*
X136676568Y-97150319D02*
X136622693Y-97150319D01*
X136622693Y-97150319D02*
X136541881Y-97123382D01*
X136541881Y-97123382D02*
X136434131Y-97015632D01*
X136434131Y-97015632D02*
X136407194Y-96934820D01*
X136191694Y-96773195D02*
X135976195Y-96557696D01*
X135922320Y-96880945D02*
X136407193Y-96396072D01*
X136407193Y-96396072D02*
X136434131Y-96315260D01*
X136434131Y-96315260D02*
X136407193Y-96234447D01*
X136407193Y-96234447D02*
X136353318Y-96180573D01*
X136164757Y-95992011D02*
X135599071Y-96557696D01*
X135922320Y-95749574D02*
X135626008Y-96045885D01*
X135626008Y-96045885D02*
X135599071Y-96126698D01*
X135599071Y-96126698D02*
X135626008Y-96207510D01*
X135626008Y-96207510D02*
X135706821Y-96288322D01*
X135706821Y-96288322D02*
X135787633Y-96315259D01*
X135787633Y-96315259D02*
X135841508Y-96315259D01*
X144941201Y-103378009D02*
X144887326Y-103378009D01*
X144887326Y-103378009D02*
X144806514Y-103351072D01*
X144806514Y-103351072D02*
X144752639Y-103189447D01*
X144752639Y-103189447D02*
X144671827Y-103162510D01*
X144671827Y-103162510D02*
X144617952Y-103162510D01*
X144375515Y-102381325D02*
X144698764Y-102704574D01*
X144537139Y-102542949D02*
X143971454Y-103108635D01*
X143971454Y-103108635D02*
X144106141Y-103081697D01*
X144106141Y-103081697D02*
X144213890Y-103081697D01*
X144213890Y-103081697D02*
X144294703Y-103108635D01*
X143621267Y-102758448D02*
X143271081Y-102408262D01*
X143271081Y-102408262D02*
X143675142Y-102381325D01*
X143675142Y-102381325D02*
X143594330Y-102300513D01*
X143594330Y-102300513D02*
X143567393Y-102219700D01*
X143567393Y-102219700D02*
X143567393Y-102165826D01*
X143567393Y-102165826D02*
X143594330Y-102085013D01*
X143594330Y-102085013D02*
X143729017Y-101950326D01*
X143729017Y-101950326D02*
X143809829Y-101923389D01*
X143809829Y-101923389D02*
X143863704Y-101923389D01*
X143863704Y-101923389D02*
X143944516Y-101950326D01*
X143944516Y-101950326D02*
X144106141Y-102111951D01*
X144106141Y-102111951D02*
X144133078Y-102192763D01*
X144133078Y-102192763D02*
X144133078Y-102246638D01*
X143540455Y-101654015D02*
X143540455Y-101600140D01*
X143540455Y-101600140D02*
X143594330Y-101600140D01*
X143594330Y-101600140D02*
X143594330Y-101654015D01*
X143594330Y-101654015D02*
X143540455Y-101654015D01*
X143540455Y-101654015D02*
X143594330Y-101600140D01*
X142920895Y-101573203D02*
X142947833Y-101654015D01*
X142947833Y-101654015D02*
X142947833Y-101707890D01*
X142947833Y-101707890D02*
X142920895Y-101788702D01*
X142920895Y-101788702D02*
X142893958Y-101815639D01*
X142893958Y-101815639D02*
X142813145Y-101842577D01*
X142813145Y-101842577D02*
X142759271Y-101842577D01*
X142759271Y-101842577D02*
X142678458Y-101815639D01*
X142678458Y-101815639D02*
X142570709Y-101707890D01*
X142570709Y-101707890D02*
X142543771Y-101627078D01*
X142543771Y-101627078D02*
X142543771Y-101573203D01*
X142543771Y-101573203D02*
X142570709Y-101492391D01*
X142570709Y-101492391D02*
X142597646Y-101465453D01*
X142597646Y-101465453D02*
X142678458Y-101438516D01*
X142678458Y-101438516D02*
X142732333Y-101438516D01*
X142732333Y-101438516D02*
X142813145Y-101465453D01*
X142813145Y-101465453D02*
X142920895Y-101573203D01*
X142920895Y-101573203D02*
X143001707Y-101600140D01*
X143001707Y-101600140D02*
X143055582Y-101600140D01*
X143055582Y-101600140D02*
X143136394Y-101573203D01*
X143136394Y-101573203D02*
X143244144Y-101465453D01*
X143244144Y-101465453D02*
X143271081Y-101384641D01*
X143271081Y-101384641D02*
X143271081Y-101330766D01*
X143271081Y-101330766D02*
X143244144Y-101249954D01*
X143244144Y-101249954D02*
X143136394Y-101142204D01*
X143136394Y-101142204D02*
X143055582Y-101115267D01*
X143055582Y-101115267D02*
X143001707Y-101115267D01*
X143001707Y-101115267D02*
X142920895Y-101142204D01*
X142920895Y-101142204D02*
X142813145Y-101249954D01*
X142813145Y-101249954D02*
X142786208Y-101330766D01*
X142786208Y-101330766D02*
X142786208Y-101384641D01*
X142786208Y-101384641D02*
X142813145Y-101465453D01*
X141681774Y-100818955D02*
X141574025Y-100711206D01*
X141574025Y-100711206D02*
X141547087Y-100630394D01*
X141547087Y-100630394D02*
X141547087Y-100522644D01*
X141547087Y-100522644D02*
X141627900Y-100387957D01*
X141627900Y-100387957D02*
X141816461Y-100199395D01*
X141816461Y-100199395D02*
X141951148Y-100118583D01*
X141951148Y-100118583D02*
X142058898Y-100118583D01*
X142058898Y-100118583D02*
X142139710Y-100145520D01*
X142139710Y-100145520D02*
X142247460Y-100253270D01*
X142247460Y-100253270D02*
X142274397Y-100334082D01*
X142274397Y-100334082D02*
X142274397Y-100441832D01*
X142274397Y-100441832D02*
X142193585Y-100576519D01*
X142193585Y-100576519D02*
X142005023Y-100765081D01*
X142005023Y-100765081D02*
X141870336Y-100845893D01*
X141870336Y-100845893D02*
X141762587Y-100845893D01*
X141762587Y-100845893D02*
X141681774Y-100818955D01*
X141762587Y-99768397D02*
X141196901Y-100334082D01*
X141520150Y-99525960D02*
X141223839Y-99822272D01*
X141223839Y-99822272D02*
X141196901Y-99903084D01*
X141196901Y-99903084D02*
X141223839Y-99983896D01*
X141223839Y-99983896D02*
X141304651Y-100064708D01*
X141304651Y-100064708D02*
X141385463Y-100091646D01*
X141385463Y-100091646D02*
X141439338Y-100091646D01*
X141250776Y-99256586D02*
X140873652Y-99633710D01*
X140927527Y-99579835D02*
X140873652Y-99579835D01*
X140873652Y-99579835D02*
X140792840Y-99552897D01*
X140792840Y-99552897D02*
X140712028Y-99472085D01*
X140712028Y-99472085D02*
X140685090Y-99391273D01*
X140685090Y-99391273D02*
X140712028Y-99310461D01*
X140712028Y-99310461D02*
X141008339Y-99014149D01*
X140712028Y-99310461D02*
X140631216Y-99337398D01*
X140631216Y-99337398D02*
X140550403Y-99310461D01*
X140550403Y-99310461D02*
X140469591Y-99229649D01*
X140469591Y-99229649D02*
X140442654Y-99148836D01*
X140442654Y-99148836D02*
X140469591Y-99068024D01*
X140469591Y-99068024D02*
X140765903Y-98771713D01*
X139688406Y-98448464D02*
X140254092Y-97882778D01*
X139715344Y-98421526D02*
X139634531Y-98394589D01*
X139634531Y-98394589D02*
X139526782Y-98286839D01*
X139526782Y-98286839D02*
X139499844Y-98206027D01*
X139499844Y-98206027D02*
X139499844Y-98152152D01*
X139499844Y-98152152D02*
X139526782Y-98071340D01*
X139526782Y-98071340D02*
X139688406Y-97909715D01*
X139688406Y-97909715D02*
X139769218Y-97882778D01*
X139769218Y-97882778D02*
X139823093Y-97882778D01*
X139823093Y-97882778D02*
X139903905Y-97909715D01*
X139903905Y-97909715D02*
X140011655Y-98017465D01*
X140011655Y-98017465D02*
X140038592Y-98098277D01*
X139311282Y-97370967D02*
X139392094Y-97397905D01*
X139392094Y-97397905D02*
X139499844Y-97505654D01*
X139499844Y-97505654D02*
X139526781Y-97586466D01*
X139526781Y-97586466D02*
X139499844Y-97667279D01*
X139499844Y-97667279D02*
X139284345Y-97882778D01*
X139284345Y-97882778D02*
X139203533Y-97909715D01*
X139203533Y-97909715D02*
X139122720Y-97882778D01*
X139122720Y-97882778D02*
X139014971Y-97775028D01*
X139014971Y-97775028D02*
X138988033Y-97694216D01*
X138988033Y-97694216D02*
X139014971Y-97613404D01*
X139014971Y-97613404D02*
X139068846Y-97559529D01*
X139068846Y-97559529D02*
X139392094Y-97775028D01*
X139068846Y-97074656D02*
X138691722Y-97451780D01*
X138799472Y-97344030D02*
X138718660Y-97370967D01*
X138718660Y-97370967D02*
X138664785Y-97370967D01*
X138664785Y-97370967D02*
X138583973Y-97344030D01*
X138583973Y-97344030D02*
X138530098Y-97290155D01*
X138018287Y-96077972D02*
X138099099Y-96104909D01*
X138099099Y-96104909D02*
X138206849Y-96212659D01*
X138206849Y-96212659D02*
X138233786Y-96293471D01*
X138233786Y-96293471D02*
X138233786Y-96347346D01*
X138233786Y-96347346D02*
X138206849Y-96428158D01*
X138206849Y-96428158D02*
X138045224Y-96589783D01*
X138045224Y-96589783D02*
X137964412Y-96616720D01*
X137964412Y-96616720D02*
X137910537Y-96616720D01*
X137910537Y-96616720D02*
X137829725Y-96589783D01*
X137829725Y-96589783D02*
X137721976Y-96482033D01*
X137721976Y-96482033D02*
X137695038Y-96401221D01*
X137721976Y-95727786D02*
X137748913Y-95808598D01*
X137748913Y-95808598D02*
X137748913Y-95862473D01*
X137748913Y-95862473D02*
X137721976Y-95943285D01*
X137721976Y-95943285D02*
X137560351Y-96104910D01*
X137560351Y-96104910D02*
X137479539Y-96131847D01*
X137479539Y-96131847D02*
X137425664Y-96131847D01*
X137425664Y-96131847D02*
X137344852Y-96104910D01*
X137344852Y-96104910D02*
X137264040Y-96024097D01*
X137264040Y-96024097D02*
X137237103Y-95943285D01*
X137237103Y-95943285D02*
X137237103Y-95889410D01*
X137237103Y-95889410D02*
X137264040Y-95808598D01*
X137264040Y-95808598D02*
X137425664Y-95646974D01*
X137425664Y-95646974D02*
X137506477Y-95620036D01*
X137506477Y-95620036D02*
X137560351Y-95620036D01*
X137560351Y-95620036D02*
X137641164Y-95646974D01*
X137641164Y-95646974D02*
X137721976Y-95727786D01*
X137290977Y-95296787D02*
X136913853Y-95673911D01*
X136725292Y-95862473D02*
X136779166Y-95862473D01*
X136779166Y-95862473D02*
X136779166Y-95808598D01*
X136779166Y-95808598D02*
X136725292Y-95808598D01*
X136725292Y-95808598D02*
X136725292Y-95862473D01*
X136725292Y-95862473D02*
X136779166Y-95808598D01*
X136940791Y-94946601D02*
X136967729Y-95027413D01*
X136967729Y-95027413D02*
X136940791Y-95108226D01*
X136940791Y-95108226D02*
X136455918Y-95593099D01*
M02*
