G04 #@! TF.GenerationSoftware,KiCad,Pcbnew,9.0.0*
G04 #@! TF.CreationDate,2026-01-04T18:33:11+01:00*
G04 #@! TF.ProjectId,maglev_coils,6d61676c-6576-45f6-936f-696c732e6b69,rev?*
G04 #@! TF.SameCoordinates,Original*
G04 #@! TF.FileFunction,Copper,L3,Inr*
G04 #@! TF.FilePolarity,Positive*
%FSLAX46Y46*%
G04 Gerber Fmt 4.6, Leading zero omitted, Abs format (unit mm)*
G04 Created by KiCad (PCBNEW 9.0.0) date 2026-01-04 18:33:11*
%MOMM*%
%LPD*%
G01*
G04 APERTURE LIST*
G04 #@! TA.AperFunction,EtchedComponent*
%ADD10C,0.245000*%
G04 #@! TD*
G04 #@! TA.AperFunction,ComponentPad*
%ADD11C,5.200000*%
G04 #@! TD*
G04 APERTURE END LIST*
D10*
G04 #@! TO.C,L3*
X146224213Y-94324600D02*
X145520642Y-95028171D01*
X161391654Y-79157159D02*
X160967389Y-79581424D01*
X146224213Y-94324600D02*
G75*
G02*
X169491562Y-71057251I11634028J11633321D01*
G01*
X146503520Y-94045293D02*
G75*
G02*
X169212255Y-71336558I11354721J11354014D01*
G01*
X146782827Y-93765986D02*
G75*
G02*
X168932946Y-71615867I11075413J11074706D01*
G01*
X147062135Y-93486678D02*
G75*
G02*
X168653640Y-71895173I10796105J10795400D01*
G01*
X147341442Y-93207371D02*
G75*
G02*
X168374333Y-72174480I10516799J10516092D01*
G01*
X147620749Y-92928064D02*
G75*
G02*
X168095026Y-72453787I10237492J10236785D01*
G01*
X147900056Y-92648757D02*
G75*
G02*
X167815719Y-72733094I9958185J9957478D01*
G01*
X148179363Y-92369450D02*
G75*
G02*
X167536412Y-73012401I9678877J9678172D01*
G01*
X148458671Y-92090142D02*
G75*
G02*
X167257105Y-73291708I9399570J9398864D01*
G01*
X148737978Y-91810835D02*
G75*
G02*
X166977797Y-73571016I9120263J9119556D01*
G01*
X149017285Y-91531528D02*
G75*
G02*
X166698490Y-73850323I8840956J8840249D01*
G01*
X149296592Y-91252221D02*
G75*
G02*
X166419183Y-74129630I8561649J8560942D01*
G01*
X149575899Y-90972914D02*
G75*
G02*
X166139878Y-74408935I8282343J8281636D01*
G01*
X149855206Y-90693607D02*
G75*
G02*
X165860567Y-74688246I8003034J8002327D01*
G01*
X150134514Y-90414299D02*
G75*
G02*
X165581262Y-74967551I7723727J7723021D01*
G01*
X150413821Y-90134992D02*
G75*
G02*
X165301954Y-75246859I7444420J7443713D01*
G01*
X150693128Y-89855685D02*
G75*
G02*
X165022647Y-75526166I7165113J7164406D01*
G01*
X150972435Y-89576378D02*
G75*
G02*
X164743340Y-75805473I6885806J6885099D01*
G01*
X151251742Y-89297071D02*
G75*
G02*
X164464033Y-76084780I6606499J6605792D01*
G01*
X151531049Y-89017764D02*
G75*
G02*
X164184724Y-76364089I6327192J6326483D01*
G01*
X151810357Y-88738456D02*
G75*
G02*
X163905418Y-76643395I6047884J6047177D01*
G01*
X152089664Y-88459149D02*
G75*
G02*
X163626111Y-76922702I5768577J5767870D01*
G01*
X152368971Y-88179842D02*
G75*
G02*
X163346804Y-77202009I5489270J5488563D01*
G01*
X152648278Y-87900535D02*
G75*
G02*
X163067497Y-77481316I5209964J5209255D01*
G01*
X152927585Y-87621228D02*
G75*
G02*
X162788188Y-77760625I4930655J4929948D01*
G01*
X153206893Y-87341920D02*
G75*
G02*
X162508882Y-78039931I4651347J4650642D01*
G01*
X153486200Y-87062613D02*
G75*
G02*
X162229575Y-78319238I4372041J4371334D01*
G01*
X153765507Y-86783306D02*
G75*
G02*
X161950268Y-78598545I4092734J4092027D01*
G01*
X154044814Y-86503999D02*
G75*
G02*
X161670961Y-78877852I3813427J3812720D01*
G01*
X154324121Y-86224692D02*
G75*
G02*
X161391654Y-79157159I3531360J3536173D01*
G01*
X161670961Y-78877852D02*
G75*
G02*
X154324121Y-86224692I-3673420J-3673420D01*
G01*
X161950268Y-78598545D02*
G75*
G02*
X154044814Y-86503999I-3952727J-3952727D01*
G01*
X162229575Y-78319238D02*
G75*
G02*
X153765507Y-86783306I-4232034J-4232034D01*
G01*
X162508882Y-78039931D02*
G75*
G02*
X153486200Y-87062613I-4511341J-4511341D01*
G01*
X162788189Y-77760624D02*
G75*
G02*
X153206893Y-87341920I-4790648J-4790648D01*
G01*
X163067497Y-77481316D02*
G75*
G02*
X152927585Y-87621228I-5069956J-5069956D01*
G01*
X163346804Y-77202009D02*
G75*
G02*
X152648278Y-87900535I-5349263J-5349263D01*
G01*
X163626111Y-76922702D02*
G75*
G02*
X152368971Y-88179842I-5628570J-5628570D01*
G01*
X163905418Y-76643395D02*
G75*
G02*
X152089664Y-88459149I-5907877J-5907877D01*
G01*
X164184725Y-76364088D02*
G75*
G02*
X151810357Y-88738456I-6187184J-6187184D01*
G01*
X164464033Y-76084780D02*
G75*
G02*
X151531049Y-89017764I-6466492J-6466492D01*
G01*
X164743340Y-75805473D02*
G75*
G02*
X151251742Y-89297071I-6745799J-6745799D01*
G01*
X165022647Y-75526166D02*
G75*
G02*
X150972435Y-89576378I-7025106J-7025106D01*
G01*
X165301954Y-75246859D02*
G75*
G02*
X150693128Y-89855685I-7304413J-7304413D01*
G01*
X165581261Y-74967552D02*
G75*
G02*
X150413821Y-90134992I-7583720J-7583720D01*
G01*
X165860568Y-74688245D02*
G75*
G02*
X150134514Y-90414299I-7863027J-7863027D01*
G01*
X166139876Y-74408937D02*
G75*
G02*
X149855206Y-90693607I-8142335J-8142335D01*
G01*
X166419183Y-74129630D02*
G75*
G02*
X149575899Y-90972914I-8421642J-8421642D01*
G01*
X166698490Y-73850323D02*
G75*
G02*
X149296592Y-91252221I-8700949J-8700949D01*
G01*
X166977797Y-73571016D02*
G75*
G02*
X149017285Y-91531528I-8980256J-8980256D01*
G01*
X167257104Y-73291709D02*
G75*
G02*
X148737978Y-91810835I-9259563J-9259563D01*
G01*
X167536411Y-73012402D02*
G75*
G02*
X148458671Y-92090142I-9538870J-9538870D01*
G01*
X167815719Y-72733094D02*
G75*
G02*
X148179363Y-92369450I-9818178J-9818178D01*
G01*
X168095026Y-72453787D02*
G75*
G02*
X147900056Y-92648757I-10097485J-10097485D01*
G01*
X168374333Y-72174480D02*
G75*
G02*
X147620749Y-92928064I-10376792J-10376792D01*
G01*
X168653640Y-71895173D02*
G75*
G02*
X147341442Y-93207371I-10656099J-10656099D01*
G01*
X168932947Y-71615866D02*
G75*
G02*
X147062135Y-93486678I-10935406J-10935406D01*
G01*
X169212255Y-71336558D02*
G75*
G02*
X146782827Y-93765986I-11214714J-11214714D01*
G01*
X169491562Y-71057251D02*
G75*
G02*
X146503520Y-94045293I-11494021J-11494021D01*
G01*
G04 #@! TO.C,L2*
X119248088Y-79157159D02*
X119672353Y-79581424D01*
X134415529Y-94324600D02*
X135119100Y-95028171D01*
X111148180Y-71057251D02*
G75*
G02*
X134136222Y-94045293I11494021J-11494021D01*
G01*
X111427487Y-71336558D02*
G75*
G02*
X133856915Y-93765986I11214714J-11214714D01*
G01*
X111706795Y-71615866D02*
G75*
G02*
X133577607Y-93486678I10935406J-10935406D01*
G01*
X111986102Y-71895173D02*
G75*
G02*
X133298300Y-93207371I10656099J-10656099D01*
G01*
X112265409Y-72174480D02*
G75*
G02*
X133018993Y-92928064I10376792J-10376792D01*
G01*
X112544716Y-72453787D02*
G75*
G02*
X132739686Y-92648757I10097485J-10097485D01*
G01*
X112824023Y-72733094D02*
G75*
G02*
X132460379Y-92369450I9818178J-9818178D01*
G01*
X113103331Y-73012402D02*
G75*
G02*
X132181071Y-92090142I9538870J-9538870D01*
G01*
X113382638Y-73291709D02*
G75*
G02*
X131901764Y-91810835I9259563J-9259563D01*
G01*
X113661945Y-73571016D02*
G75*
G02*
X131622457Y-91531528I8980256J-8980256D01*
G01*
X113941252Y-73850323D02*
G75*
G02*
X131343150Y-91252221I8700949J-8700949D01*
G01*
X114220559Y-74129630D02*
G75*
G02*
X131063843Y-90972914I8421642J-8421642D01*
G01*
X114499866Y-74408937D02*
G75*
G02*
X130784536Y-90693607I8142335J-8142335D01*
G01*
X114779174Y-74688245D02*
G75*
G02*
X130505228Y-90414299I7863027J-7863027D01*
G01*
X115058481Y-74967552D02*
G75*
G02*
X130225921Y-90134992I7583720J-7583720D01*
G01*
X115337788Y-75246859D02*
G75*
G02*
X129946614Y-89855685I7304413J-7304413D01*
G01*
X115617095Y-75526166D02*
G75*
G02*
X129667307Y-89576378I7025106J-7025106D01*
G01*
X115896402Y-75805473D02*
G75*
G02*
X129388000Y-89297071I6745799J-6745799D01*
G01*
X116175709Y-76084780D02*
G75*
G02*
X129108693Y-89017764I6466492J-6466492D01*
G01*
X116455017Y-76364088D02*
G75*
G02*
X128829385Y-88738456I6187184J-6187184D01*
G01*
X116734324Y-76643395D02*
G75*
G02*
X128550078Y-88459149I5907877J-5907877D01*
G01*
X117013631Y-76922702D02*
G75*
G02*
X128270771Y-88179842I5628570J-5628570D01*
G01*
X117292938Y-77202009D02*
G75*
G02*
X127991464Y-87900535I5349263J-5349263D01*
G01*
X117572245Y-77481316D02*
G75*
G02*
X127712157Y-87621228I5069956J-5069956D01*
G01*
X117851553Y-77760624D02*
G75*
G02*
X127432849Y-87341920I4790648J-4790648D01*
G01*
X118130860Y-78039931D02*
G75*
G02*
X127153542Y-87062613I4511341J-4511341D01*
G01*
X118410167Y-78319238D02*
G75*
G02*
X126874235Y-86783306I4232034J-4232034D01*
G01*
X118689474Y-78598545D02*
G75*
G02*
X126594928Y-86503999I3952727J-3952727D01*
G01*
X118968781Y-78877852D02*
G75*
G02*
X126315621Y-86224692I3673420J-3673420D01*
G01*
X126315621Y-86224692D02*
G75*
G02*
X119248088Y-79157159I-3536173J3531360D01*
G01*
X126594928Y-86503999D02*
G75*
G02*
X118968781Y-78877852I-3812720J3813427D01*
G01*
X126874235Y-86783306D02*
G75*
G02*
X118689474Y-78598545I-4092027J4092734D01*
G01*
X127153542Y-87062613D02*
G75*
G02*
X118410167Y-78319238I-4371334J4372041D01*
G01*
X127432849Y-87341920D02*
G75*
G02*
X118130860Y-78039931I-4650642J4651347D01*
G01*
X127712157Y-87621228D02*
G75*
G02*
X117851554Y-77760625I-4929948J4930655D01*
G01*
X127991464Y-87900535D02*
G75*
G02*
X117572245Y-77481316I-5209255J5209964D01*
G01*
X128270771Y-88179842D02*
G75*
G02*
X117292938Y-77202009I-5488563J5489270D01*
G01*
X128550078Y-88459149D02*
G75*
G02*
X117013631Y-76922702I-5767870J5768577D01*
G01*
X128829385Y-88738456D02*
G75*
G02*
X116734324Y-76643395I-6047177J6047884D01*
G01*
X129108693Y-89017764D02*
G75*
G02*
X116455018Y-76364089I-6326483J6327192D01*
G01*
X129388000Y-89297071D02*
G75*
G02*
X116175709Y-76084780I-6605792J6606499D01*
G01*
X129667307Y-89576378D02*
G75*
G02*
X115896402Y-75805473I-6885099J6885806D01*
G01*
X129946614Y-89855685D02*
G75*
G02*
X115617095Y-75526166I-7164406J7165113D01*
G01*
X130225921Y-90134992D02*
G75*
G02*
X115337788Y-75246859I-7443713J7444420D01*
G01*
X130505228Y-90414299D02*
G75*
G02*
X115058480Y-74967551I-7723021J7723727D01*
G01*
X130784536Y-90693607D02*
G75*
G02*
X114779175Y-74688246I-8002327J8003034D01*
G01*
X131063843Y-90972914D02*
G75*
G02*
X114499864Y-74408935I-8281636J8282343D01*
G01*
X131343150Y-91252221D02*
G75*
G02*
X114220559Y-74129630I-8560942J8561649D01*
G01*
X131622457Y-91531528D02*
G75*
G02*
X113941252Y-73850323I-8840249J8840956D01*
G01*
X131901764Y-91810835D02*
G75*
G02*
X113661945Y-73571016I-9119556J9120263D01*
G01*
X132181071Y-92090142D02*
G75*
G02*
X113382637Y-73291708I-9398864J9399570D01*
G01*
X132460379Y-92369450D02*
G75*
G02*
X113103330Y-73012401I-9678172J9678877D01*
G01*
X132739686Y-92648757D02*
G75*
G02*
X112824023Y-72733094I-9957478J9958185D01*
G01*
X133018993Y-92928064D02*
G75*
G02*
X112544716Y-72453787I-10236785J10237492D01*
G01*
X133298300Y-93207371D02*
G75*
G02*
X112265409Y-72174480I-10516092J10516799D01*
G01*
X133577607Y-93486678D02*
G75*
G02*
X111986102Y-71895173I-10795400J10796105D01*
G01*
X133856915Y-93765986D02*
G75*
G02*
X111706796Y-71615867I-11074706J11075413D01*
G01*
X134136222Y-94045293D02*
G75*
G02*
X111427487Y-71336558I-11354014J11354721D01*
G01*
X134415529Y-94324600D02*
G75*
G02*
X111148180Y-71057251I-11633321J11634028D01*
G01*
G04 #@! TO.C,L4*
X146224213Y-106133283D02*
X145520642Y-105429712D01*
X161391654Y-121300724D02*
X160967389Y-120876459D01*
X146224213Y-106133283D02*
G75*
G02*
X169491562Y-129400632I11633321J-11634028D01*
G01*
X146503520Y-106412590D02*
G75*
G02*
X169212255Y-129121325I11354014J-11354721D01*
G01*
X146782827Y-106691897D02*
G75*
G02*
X168932946Y-128842016I11074706J-11075413D01*
G01*
X147062135Y-106971205D02*
G75*
G02*
X168653640Y-128562710I10795400J-10796105D01*
G01*
X147341442Y-107250512D02*
G75*
G02*
X168374333Y-128283403I10516092J-10516799D01*
G01*
X147620749Y-107529819D02*
G75*
G02*
X168095026Y-128004096I10236785J-10237492D01*
G01*
X147900056Y-107809126D02*
G75*
G02*
X167815719Y-127724789I9957478J-9958185D01*
G01*
X148179363Y-108088433D02*
G75*
G02*
X167536412Y-127445482I9678172J-9678877D01*
G01*
X148458671Y-108367741D02*
G75*
G02*
X167257105Y-127166175I9398864J-9399570D01*
G01*
X148737978Y-108647048D02*
G75*
G02*
X166977797Y-126886867I9119556J-9120263D01*
G01*
X149017285Y-108926355D02*
G75*
G02*
X166698490Y-126607560I8840249J-8840956D01*
G01*
X149296592Y-109205662D02*
G75*
G02*
X166419183Y-126328253I8560942J-8561649D01*
G01*
X149575899Y-109484969D02*
G75*
G02*
X166139878Y-126048948I8281636J-8282343D01*
G01*
X149855206Y-109764276D02*
G75*
G02*
X165860567Y-125769637I8002327J-8003034D01*
G01*
X150134514Y-110043584D02*
G75*
G02*
X165581262Y-125490332I7723021J-7723727D01*
G01*
X150413821Y-110322891D02*
G75*
G02*
X165301954Y-125211024I7443713J-7444420D01*
G01*
X150693128Y-110602198D02*
G75*
G02*
X165022647Y-124931717I7164406J-7165113D01*
G01*
X150972435Y-110881505D02*
G75*
G02*
X164743340Y-124652410I6885099J-6885806D01*
G01*
X151251742Y-111160812D02*
G75*
G02*
X164464033Y-124373103I6605792J-6606499D01*
G01*
X151531049Y-111440119D02*
G75*
G02*
X164184724Y-124093794I6326483J-6327192D01*
G01*
X151810357Y-111719427D02*
G75*
G02*
X163905418Y-123814488I6047177J-6047884D01*
G01*
X152089664Y-111998734D02*
G75*
G02*
X163626111Y-123535181I5767870J-5768577D01*
G01*
X152368971Y-112278041D02*
G75*
G02*
X163346804Y-123255874I5488563J-5489270D01*
G01*
X152648278Y-112557348D02*
G75*
G02*
X163067497Y-122976567I5209255J-5209964D01*
G01*
X152927585Y-112836655D02*
G75*
G02*
X162788188Y-122697258I4929948J-4930655D01*
G01*
X153206893Y-113115963D02*
G75*
G02*
X162508882Y-122417952I4650642J-4651347D01*
G01*
X153486200Y-113395270D02*
G75*
G02*
X162229575Y-122138645I4371334J-4372041D01*
G01*
X153765507Y-113674577D02*
G75*
G02*
X161950268Y-121859338I4092027J-4092734D01*
G01*
X154044814Y-113953884D02*
G75*
G02*
X161670961Y-121580031I3812720J-3813427D01*
G01*
X154324121Y-114233191D02*
G75*
G02*
X161391654Y-121300724I3536173J-3531360D01*
G01*
X161670961Y-121580031D02*
G75*
G02*
X154324121Y-114233191I-3673420J3673420D01*
G01*
X161950268Y-121859338D02*
G75*
G02*
X154044814Y-113953884I-3952727J3952727D01*
G01*
X162229575Y-122138645D02*
G75*
G02*
X153765507Y-113674577I-4232034J4232034D01*
G01*
X162508882Y-122417952D02*
G75*
G02*
X153486200Y-113395270I-4511341J4511341D01*
G01*
X162788189Y-122697259D02*
G75*
G02*
X153206893Y-113115963I-4790648J4790648D01*
G01*
X163067497Y-122976567D02*
G75*
G02*
X152927585Y-112836655I-5069956J5069956D01*
G01*
X163346804Y-123255874D02*
G75*
G02*
X152648278Y-112557348I-5349263J5349263D01*
G01*
X163626111Y-123535181D02*
G75*
G02*
X152368971Y-112278041I-5628570J5628570D01*
G01*
X163905418Y-123814488D02*
G75*
G02*
X152089664Y-111998734I-5907877J5907877D01*
G01*
X164184725Y-124093795D02*
G75*
G02*
X151810357Y-111719427I-6187184J6187184D01*
G01*
X164464033Y-124373103D02*
G75*
G02*
X151531049Y-111440119I-6466492J6466492D01*
G01*
X164743340Y-124652410D02*
G75*
G02*
X151251742Y-111160812I-6745799J6745799D01*
G01*
X165022647Y-124931717D02*
G75*
G02*
X150972435Y-110881505I-7025106J7025106D01*
G01*
X165301954Y-125211024D02*
G75*
G02*
X150693128Y-110602198I-7304413J7304413D01*
G01*
X165581261Y-125490331D02*
G75*
G02*
X150413821Y-110322891I-7583720J7583720D01*
G01*
X165860568Y-125769638D02*
G75*
G02*
X150134514Y-110043584I-7863027J7863027D01*
G01*
X166139876Y-126048946D02*
G75*
G02*
X149855206Y-109764276I-8142335J8142335D01*
G01*
X166419183Y-126328253D02*
G75*
G02*
X149575899Y-109484969I-8421642J8421642D01*
G01*
X166698490Y-126607560D02*
G75*
G02*
X149296592Y-109205662I-8700949J8700949D01*
G01*
X166977797Y-126886867D02*
G75*
G02*
X149017285Y-108926355I-8980256J8980256D01*
G01*
X167257104Y-127166174D02*
G75*
G02*
X148737978Y-108647048I-9259563J9259563D01*
G01*
X167536411Y-127445481D02*
G75*
G02*
X148458671Y-108367741I-9538870J9538870D01*
G01*
X167815719Y-127724789D02*
G75*
G02*
X148179363Y-108088433I-9818178J9818178D01*
G01*
X168095026Y-128004096D02*
G75*
G02*
X147900056Y-107809126I-10097485J10097485D01*
G01*
X168374333Y-128283403D02*
G75*
G02*
X147620749Y-107529819I-10376792J10376792D01*
G01*
X168653640Y-128562710D02*
G75*
G02*
X147341442Y-107250512I-10656099J10656099D01*
G01*
X168932947Y-128842017D02*
G75*
G02*
X147062135Y-106971205I-10935406J10935406D01*
G01*
X169212255Y-129121325D02*
G75*
G02*
X146782827Y-106691897I-11214714J11214714D01*
G01*
X169491562Y-129400632D02*
G75*
G02*
X146503520Y-106412590I-11494021J11494021D01*
G01*
G04 #@! TO.C,L1*
X119248088Y-121300724D02*
X119672353Y-120876459D01*
X134415529Y-106133283D02*
X135119100Y-105429712D01*
X111148180Y-129400632D02*
G75*
G02*
X134136222Y-106412590I11494021J11494021D01*
G01*
X111427487Y-129121325D02*
G75*
G02*
X133856915Y-106691897I11214714J11214714D01*
G01*
X111706795Y-128842017D02*
G75*
G02*
X133577607Y-106971205I10935406J10935406D01*
G01*
X111986102Y-128562710D02*
G75*
G02*
X133298300Y-107250512I10656099J10656099D01*
G01*
X112265409Y-128283403D02*
G75*
G02*
X133018993Y-107529819I10376792J10376792D01*
G01*
X112544716Y-128004096D02*
G75*
G02*
X132739686Y-107809126I10097485J10097485D01*
G01*
X112824023Y-127724789D02*
G75*
G02*
X132460379Y-108088433I9818178J9818178D01*
G01*
X113103331Y-127445481D02*
G75*
G02*
X132181071Y-108367741I9538870J9538870D01*
G01*
X113382638Y-127166174D02*
G75*
G02*
X131901764Y-108647048I9259563J9259563D01*
G01*
X113661945Y-126886867D02*
G75*
G02*
X131622457Y-108926355I8980256J8980256D01*
G01*
X113941252Y-126607560D02*
G75*
G02*
X131343150Y-109205662I8700949J8700949D01*
G01*
X114220559Y-126328253D02*
G75*
G02*
X131063843Y-109484969I8421642J8421642D01*
G01*
X114499866Y-126048946D02*
G75*
G02*
X130784536Y-109764276I8142335J8142335D01*
G01*
X114779174Y-125769638D02*
G75*
G02*
X130505228Y-110043584I7863027J7863027D01*
G01*
X115058481Y-125490331D02*
G75*
G02*
X130225921Y-110322891I7583720J7583720D01*
G01*
X115337788Y-125211024D02*
G75*
G02*
X129946614Y-110602198I7304413J7304413D01*
G01*
X115617095Y-124931717D02*
G75*
G02*
X129667307Y-110881505I7025106J7025106D01*
G01*
X115896402Y-124652410D02*
G75*
G02*
X129388000Y-111160812I6745799J6745799D01*
G01*
X116175709Y-124373103D02*
G75*
G02*
X129108693Y-111440119I6466492J6466492D01*
G01*
X116455017Y-124093795D02*
G75*
G02*
X128829385Y-111719427I6187184J6187184D01*
G01*
X116734324Y-123814488D02*
G75*
G02*
X128550078Y-111998734I5907877J5907877D01*
G01*
X117013631Y-123535181D02*
G75*
G02*
X128270771Y-112278041I5628570J5628570D01*
G01*
X117292938Y-123255874D02*
G75*
G02*
X127991464Y-112557348I5349263J5349263D01*
G01*
X117572245Y-122976567D02*
G75*
G02*
X127712157Y-112836655I5069956J5069956D01*
G01*
X117851553Y-122697259D02*
G75*
G02*
X127432849Y-113115963I4790648J4790648D01*
G01*
X118130860Y-122417952D02*
G75*
G02*
X127153542Y-113395270I4511341J4511341D01*
G01*
X118410167Y-122138645D02*
G75*
G02*
X126874235Y-113674577I4232034J4232034D01*
G01*
X118689474Y-121859338D02*
G75*
G02*
X126594928Y-113953884I3952727J3952727D01*
G01*
X118968781Y-121580031D02*
G75*
G02*
X126315621Y-114233191I3673420J3673420D01*
G01*
X126315621Y-114233191D02*
G75*
G02*
X119248088Y-121300724I-3531360J-3536173D01*
G01*
X126594928Y-113953884D02*
G75*
G02*
X118968781Y-121580031I-3813427J-3812720D01*
G01*
X126874235Y-113674577D02*
G75*
G02*
X118689474Y-121859338I-4092734J-4092027D01*
G01*
X127153542Y-113395270D02*
G75*
G02*
X118410167Y-122138645I-4372041J-4371334D01*
G01*
X127432849Y-113115963D02*
G75*
G02*
X118130860Y-122417952I-4651347J-4650642D01*
G01*
X127712157Y-112836655D02*
G75*
G02*
X117851554Y-122697258I-4930655J-4929948D01*
G01*
X127991464Y-112557348D02*
G75*
G02*
X117572245Y-122976567I-5209964J-5209255D01*
G01*
X128270771Y-112278041D02*
G75*
G02*
X117292938Y-123255874I-5489270J-5488563D01*
G01*
X128550078Y-111998734D02*
G75*
G02*
X117013631Y-123535181I-5768577J-5767870D01*
G01*
X128829385Y-111719427D02*
G75*
G02*
X116734324Y-123814488I-6047884J-6047177D01*
G01*
X129108693Y-111440119D02*
G75*
G02*
X116455018Y-124093794I-6327192J-6326483D01*
G01*
X129388000Y-111160812D02*
G75*
G02*
X116175709Y-124373103I-6606499J-6605792D01*
G01*
X129667307Y-110881505D02*
G75*
G02*
X115896402Y-124652410I-6885806J-6885099D01*
G01*
X129946614Y-110602198D02*
G75*
G02*
X115617095Y-124931717I-7165113J-7164406D01*
G01*
X130225921Y-110322891D02*
G75*
G02*
X115337788Y-125211024I-7444420J-7443713D01*
G01*
X130505228Y-110043584D02*
G75*
G02*
X115058480Y-125490332I-7723727J-7723021D01*
G01*
X130784536Y-109764276D02*
G75*
G02*
X114779175Y-125769637I-8003034J-8002327D01*
G01*
X131063843Y-109484969D02*
G75*
G02*
X114499864Y-126048948I-8282343J-8281636D01*
G01*
X131343150Y-109205662D02*
G75*
G02*
X114220559Y-126328253I-8561649J-8560942D01*
G01*
X131622457Y-108926355D02*
G75*
G02*
X113941252Y-126607560I-8840956J-8840249D01*
G01*
X131901764Y-108647048D02*
G75*
G02*
X113661945Y-126886867I-9120263J-9119556D01*
G01*
X132181071Y-108367741D02*
G75*
G02*
X113382637Y-127166175I-9399570J-9398864D01*
G01*
X132460379Y-108088433D02*
G75*
G02*
X113103330Y-127445482I-9678877J-9678172D01*
G01*
X132739686Y-107809126D02*
G75*
G02*
X112824023Y-127724789I-9958185J-9957478D01*
G01*
X133018993Y-107529819D02*
G75*
G02*
X112544716Y-128004096I-10237492J-10236785D01*
G01*
X133298300Y-107250512D02*
G75*
G02*
X112265409Y-128283403I-10516799J-10516092D01*
G01*
X133577607Y-106971205D02*
G75*
G02*
X111986102Y-128562710I-10796105J-10795400D01*
G01*
X133856915Y-106691897D02*
G75*
G02*
X111706796Y-128842016I-11075413J-11074706D01*
G01*
X134136222Y-106412590D02*
G75*
G02*
X111427487Y-129121325I-11354721J-11354014D01*
G01*
X134415529Y-106133283D02*
G75*
G02*
X111148180Y-129400632I-11634028J-11633321D01*
G01*
G04 #@! TD*
D11*
G04 #@! TO.N,unconnected-(L3-Pad1)*
G04 #@! TO.C,L3*
X147747541Y-100304792D03*
G04 #@! TO.N,unconnected-(L3-Pad2)*
X168247541Y-100304792D03*
G04 #@! TD*
G04 #@! TO.N,unconnected-(L2-Pad1)*
G04 #@! TO.C,L2*
X140395721Y-92801272D03*
G04 #@! TO.N,unconnected-(L2-Pad2)*
X140395721Y-72301272D03*
G04 #@! TD*
G04 #@! TO.N,unconnected-(L4-Pad1)*
G04 #@! TO.C,L4*
X140244021Y-107656611D03*
G04 #@! TO.N,unconnected-(L4-Pad2)*
X140244021Y-128156611D03*
G04 #@! TD*
G04 #@! TO.N,unconnected-(L1-Pad1)*
G04 #@! TO.C,L1*
X132892201Y-100153091D03*
G04 #@! TO.N,unconnected-(L1-Pad2)*
X112392201Y-100153091D03*
G04 #@! TD*
M02*
